<?xml version="1.0" encoding="utf-8"?>
<!-- Generator: Adobe Illustrator 22.1.0, SVG Export Plug-In . SVG Version: 6.00 Build 0)  -->
<svg version="1.1" id="Camada_1" xmlns="http://www.w3.org/2000/svg" xmlns:xlink="http://www.w3.org/1999/xlink" x="0px" y="0px"
	 viewBox="0 0 550 550" style="enable-background:new 0 0 550 550;" xml:space="preserve">
<style type="text/css">
	.st0{fill:#6C4D4D;}
</style>
<g>
	<path class="st0" d="M273.9,12.8c6.5,0,11.5-0.1,16.5,0c5,0.2,10.1,0.2,15,1.2c4.7,0.9,9.5,1.1,14,2.2c4.4,1.1,9.1,0.8,13.1,3.1
		c5.7-0.2,10.8,2.5,16.3,3.6c4.8,0.9,9.4,3,14.1,4.6c6.5,2.2,12.8,4.8,18.9,7.8c4.4,2.2,9.1,3.9,13.5,6.3
		c10.6,6,21.4,11.4,30.9,19.1c4.9,4,10.2,7.4,15.4,11c0.3,0.2,0.5,0.5,0.8,0.8c9.4,7.9,18.3,16.4,26.4,25.6c7,7.9,13.9,16,20,24.9
		c5.8,8.5,11.2,17.1,16.3,26c1.9,3.3,4,6.5,5.5,9.9c5.4,12.5,11.3,24.9,15.2,38.1c1.9,6.3,2.9,12.8,4.9,19.1
		c1.4,4.5,1.4,9.2,3.1,13.7c1,2.7,0.7,5.9,1.1,8.9c0.6,5.2,2.1,10.3,1.3,15.6c2.3,10.3,0.6,20.8,1.1,31.1c0.3,5.8-1.9,11.4-1.1,17.3
		c-1.5,2.8-0.2,6.3-1.3,8.9c-1.3,3,0.3,6.5-2,9.1c0.8,5.1-1.7,9.7-2.5,14.6c-0.8,5.4-2.5,10.7-4.2,15.9c-1.2,3.7-3.1,7.3-4,11.1
		c-0.9,3.9-2.5,7.5-3.9,11.2c-2.4,6.6-5.7,12.8-8.8,19.1c-2.8,5.5-5.8,10.9-8.8,16.3c-3,5.5-6.8,10.5-10.1,15.7
		c-3.5,5.5-8,10.4-12,15.6c-6.5,8.5-13.8,16.4-21.6,23.7c-6.6,6.1-13.3,11.9-20.4,17.4c-4.6,3.6-9.3,7-14.1,10.4
		c-5.1,3.6-10.3,7-15.8,10.1c-7.2,4-14.6,7.6-22,11.2c-8.9,4.3-18.2,8-27.6,10.9c-5.4,1.7-10.7,3.5-16.2,5.1
		c-3.8,1.1-7.7,1.9-11.7,2.6c-2.8,0.5-5.5,1.8-8.4,1.2c-2.2,2.5-5.8-0.4-8,2.1c-0.3,0.3-1.1,0.2-1.6,0.1c-5.3-0.4-10.4,0.9-15.6,1.4
		c-5.4,0.6-10.8,0.7-16.2,0.8c-5.5,0.1-11.1,0-16.6,0c-5.6,0.1-11.1-1-16.7-1.4c-5.2-0.3-10.6-0.8-15.7-2.1
		c-8.7-2.1-17.5-3.9-26.2-6.2c-7.7-2-15-5.1-22.6-7.1c-2.3-0.6-4.5-1.7-6.7-2.6c-7.9-3.6-15.9-7.2-23.6-11.4
		c-9.6-5.2-19-10.8-27.8-17.4c-6.6-5-13.3-10-19.7-15.3c-8.9-7.2-16.6-15.6-24.4-23.8c-6.7-7.1-12.7-14.9-18.5-22.8
		c-3.7-5-7-10.4-10.2-15.7c-5.7-9.2-10.9-18.7-15.2-28.6c-2.2-5.1-4.6-10.3-6.3-15.7c-1.7-5.4-3.3-10.8-5.4-16
		c-2.5-6.1-2.9-12.8-5.5-18.8c0.2-5.2-1.9-10-2.4-15.1c-0.3-3.2-0.1-6.6-1.1-9.5c-1.1-3.1-0.2-6.1-1-9c-2.1-8.3-0.5-16.7-1-25.1
		c-0.1-2.4,0.2-4.8-0.1-7.2c-0.7-7.5,0.8-14.9,1.4-22.3c0.6-6.9,1.5-14,3.3-20.8c2-8,2.9-16.3,6.5-23.9c-0.2-4.2,2.2-7.6,3.3-11.4
		c1.4-4.8,3.7-9.2,5.3-13.9c2.9-8.6,7.5-16.5,11.6-24.6c3.6-7.2,8.1-14.1,12.8-20.8c3.2-4.6,6.2-9.3,9.4-13.8
		c1.5-2.2,3.3-4.2,5.1-6.2c9.6-11.2,19.9-21.6,30.7-31.6c6.8-6.3,14.6-11.7,22.2-17.1c15.9-11.2,25.2-16.2,44.4-25.4
		c8.5-4.1,17.5-6.9,26.4-9.8c3.7-1.2,7.4-2.7,11.3-3.6c3.6-0.8,7.4-1.3,10.9-3c1.8-0.9,4.1-0.2,6.2-1.1c2.3-1,5.2-0.9,7.8-1.3
		c2.6-0.4,5.4-0.4,7.8-1.2c3.7-1.2,7.6-0.3,11.2-1.2C258.7,11.8,267.1,13.5,273.9,12.8z M477.4,275.5c0.6-7.4-2-14.2-3.9-21.1
		c-1.8-6.5-5.7-12.2-6-19.1c-3.2-7-3.2-14.6-4.3-22c-0.7-5.2-1.1-10.5-2.4-15.7c-1.4-5.6-2.5-11.2-6.6-15.6c-0.3-2.7-2-1.9-3.4-1.2
		c-2.9,1.6-5.7,3.3-8.5,4.8c-8.7,4.5-16.9,10-25.5,14.6c-3,1.6-6.1,3.1-9.1,4.9c-5.8,3.4-11.4,7.1-17.3,10.5
		c-3.7,2.2-7.9,3.5-11.3,6c-5.1,3.6-10.7,6.4-16,9.6c-7.5,4.6-15.2,8.8-22.8,13.2c-8.9,5.3-17.8,10.6-26.8,15.5
		c-8.1,4.5-15.8,9.7-24.2,13.6c-1.6,0.7-1.4,2.2,0.2,3.1c3.5,1.9,7.1,3.5,10.4,5.6c6,3.8,12.3,7,18.3,10.7
		c7.6,4.6,15.5,8.8,23.2,13.4c5.6,3.3,11.5,6.1,17.1,9.5c6.9,4.2,14,8.2,21,12.1c5.2,3,10.3,6.2,15.6,9c6.7,3.6,12.9,8.1,19.6,11.5
		c5.8,3,11.3,6.6,17,9.7c6.4,3.4,12.7,7,18.8,10.9c1.2,0.8,1.9,1,2.7-0.2c1.8-2.6,3.7-5.1,5.2-7.8c1-1.8,1.3-3.9,1.8-5.9
		c0.6-2.2,1.3-4.4,1.5-6.6c0.1-2.1,0.7-4.1,1.1-6.2c0.6-3.1,0-6.3,1-9.6c0.9-2.9,0.6-6.3,1.1-9.5c0.7-4.1,1.8-8.2,2.9-12.2
		c1.7-6.8,4.7-13.2,6.7-20C476.1,286.1,477.9,281,477.4,275.5z M72.7,274c0,4-0.7,7.2,0.2,9.8c0.8,2.5,1.1,5.1,2,7.5
		c0.9,2.2,1.3,4.7,2.3,6.8c1.1,2.4,1.8,4.8,2.6,7.3c1.2,3.9,2.8,7.7,3.8,11.7c1.1,4,1.4,8.2,2.3,12.3c0.6,2.9,0.3,5.9,1.1,9
		c0.8,2.8,0.8,6,1.1,8.9c0.7,6.5,2.7,12.5,5.8,18.2c0.9,1.6,1.9,3.4,3.4,4.3c1.8,1.1,2.6-1.4,4-2.1c0.6-0.3,1.2-0.6,1.8-0.9
		c3.8-2,7.8-3.6,11.4-5.9c6.5-4.3,13.4-7.9,20-11.9c3.1-1.9,6.3-3.4,9.5-5.2c5.8-3.4,11.5-6.9,17.4-10.3c3.6-2,7.5-3.5,10.9-5.8
		c7.6-5.2,15.8-9.2,23.6-14c6.4-3.9,13.1-7.6,19.7-11.2c3-1.6,6.2-3,9-4.9c5.1-3.6,10.6-6.4,16-9.5c6.7-3.8,13.1-8.2,20.3-11.3
		c1.7-0.7,1.6-2.2,0-3.1c-4.6-2.4-9.4-4.3-13.6-7.2c-8.2-5.6-17.2-9.6-25.4-15.1c-3-2-6.4-3.4-9.5-5.2c-5.7-3.3-11.2-6.9-16.9-10.1
		c-3.7-2.1-7.8-3.6-11.4-6c-6.5-4.3-13.4-7.9-20-12c-3.1-1.9-6.4-3.4-9.5-5.2c-5.8-3.4-11.5-7-17.3-10.3c-3.6-2-7.5-3.5-10.9-5.8
		c-7.6-5.1-15.9-9-23.5-14.2c-1.3-0.9-2.6-1.7-4.1-2.2c-1.2-0.4-2.6-0.3-3.4,1.1c-1.3,2.1-1.9,4.5-3.8,6.2
		c-0.9,0.8-4.6,17.3-4.5,18.6c0.4,4.9-2,9.6-1.1,14.5c-1.6,2.4-0.4,5.4-1.3,7.8c-1.4,3.7-1.8,7.7-3.1,11.4c-1.4,3.9-3,7.6-4.1,11.6
		C75.3,259.2,71.4,266.6,72.7,274z M269,171c0-21.2,0-42.5,0-63.7c0-8.9,0-17.7,0-26.6c0-1.6,0.1-2.6-2.3-2.7
		c-3.2-0.1-6.3,0.8-9.6-0.8c-2.7-1.3-6.4,0.6-9.4-1.3c-7.8-0.6-15.4,0.4-22.8,2.5c-2.9,0.9-5.7,2.4-8.4,3.9
		c-2.9,1.6-5.6,3.4-8.4,5.1c-7.9,4.8-15.5,10.2-24.4,13.5c-6.6,2.4-13.3,4.3-19.7,7.2c-6.8,3.1-13.7,5.9-19.1,11.4
		c-5.3,5.5-9.6,11.9-13.3,18.3c-5.2,9-11.6,16.8-18.4,24.5c-1.8,2.1-3.9,3.9-5.9,5.9c-1.4,1.4-1.4,2.3,0.3,3
		c5.9,2.4,11,6.3,16.6,9.3c5.8,3,11.3,6.6,17,9.9c5.7,3.5,11.9,6.3,17.4,10c2.6,1.7,5.4,3,8.1,4.6c5.8,3.5,11.4,7.1,17.3,10.5
		c3.7,2.2,7.8,3.7,11.4,6c6.4,4.1,13.1,7.7,19.6,11.7c3.1,1.9,6.5,3.2,9.5,5.2c5.3,3.6,11,6.4,16.5,9.7c7.2,4.4,14.9,8,21.8,12.9
		c1.4,1,3,1.7,4.6,2.3c0.4,0.1,1.5-0.5,1.5-0.9c0.2-1.5,0.1-2.9,0.1-4.4C269,229,269,200,269,171z M269,378.4c0-28.8,0-57.6,0-86.4
		c0-1.3,0-2.6,0-3.9c0-1.2-1.9-2.2-2.7-1.4c-2.3,2.4-5.5,3-8,4.7c-7.9,5.4-16.3,9.7-24.6,14.3c-5.8,3.3-11.6,6.7-17.4,10.1
		c-6.7,3.9-13.6,7.5-20.1,11.8c-3,2-6.3,3.4-9.5,5.2c-5.8,3.4-11.5,7-17.3,10.3c-3.6,2-7.5,3.5-10.9,5.8c-6.5,4.3-13.4,7.9-20,12
		c-2.9,1.8-6.2,3-9.1,4.9c-6.3,4-12.7,7.7-19.1,11.3c-0.9,0.5-1.9,1-2.7,1.6c-1.9,1.5-1.9,1.5-0.3,3.1c4.2,4.2,8.8,8,12.4,12.6
		c6.3,8.1,11.6,16.9,17.2,25.5c4.1,6.2,8.9,11.6,15.2,15.8c5.8,3.9,12.5,5.7,18.7,8.4c4.5,2,9.3,3.3,13.9,5.2
		c9.9,4.1,18.7,10.2,27.9,15.6c4,2.4,8.2,4.1,12.4,6.1c4.7,2.2,9.7,1.4,14.3,2.9c1.4,0.5,3.4-1.1,5-0.9c6.6,0.6,12.9-1.5,19.5-1.2
		c3.9,0.1,5-1.1,5-4.8C269,437.5,269,407.9,269,378.4z M281.2,378.4c0,18.8,0,37.7,0,56.5c0,10.5,0.1,21.1,0,31.6
		c-0.1,4.6,0.3,5.7,5.6,5.4c2.4-0.1,5.2-0.8,7.1,0.2c2.2,1.2,4.3,0.5,6.3,0.9c2.2,0.4,4.5,0.9,6.7,1.1c2.8,0.2,5.6-0.6,8.4-0.9
		c5.3-0.5,10.1-2.4,14.9-4.3c5.9-2.3,10.7-6.3,16-9.4c5.5-3.2,10.7-7.1,16.5-9.5c4.7-2,9.6-3.6,14.5-5s9.8-3.1,14.1-6.1
		c6.7-0.5,9.6-6.8,14.9-9.4c4.1-6.1,8.3-12,12.3-18.2c4.2-6.5,8.1-13.2,13.6-18.7c3.6-3.7,7.2-7.4,11-10.9c1.4-1.3,0.4-1.9-0.4-2.4
		c-6.8-4-13.7-7.9-20.6-11.8c-3.4-2-6.9-3.9-10.3-5.9c-5.6-3.4-11.2-6.9-16.9-10.1c-3.7-2.1-7.8-3.6-11.4-6
		c-6.6-4.4-13.6-8.2-20.5-12.1c-3-1.7-6-3.3-9-5.1c-5.6-3.4-11.2-6.9-16.9-10.1c-3.7-2.1-7.9-3.5-11.3-6c-6.4-4.5-13.5-7.7-20-12
		c-3.5-2.3-7.3-3.9-10.7-6.2c-3.8-2.6-8.1-4.5-12.1-6.7c-1.5-0.8-1.9-0.5-2,1.1c0,1.3,0,2.6,0,3.9
		C281.2,320.8,281.2,349.6,281.2,378.4z M281.2,170.5c0,29.2,0,58.4,0,87.5c0,1.5-0.1,3,0.1,4.4c0,0.4,1.2,1,1.5,0.9
		c1.6-1,3.1-2.4,4.8-3.2c6.8-3.3,13.2-7.4,19.8-11.1c3.1-1.8,6.4-3.3,9.5-5.2c5.7-3.3,11.2-6.9,16.9-10.1c5.6-3.3,11.6-6,17.1-9.5
		s11.3-6.8,16.9-10c6.4-3.7,12.5-7.9,19.4-10.7c9.1-6.9,19.5-11.8,29.3-17.5c8.6-5,16.9-10.6,26-14.6c1.7-0.8,1.7-1.6,0.3-3.1
		c-4.2-4.2-8.8-8-12.4-12.6c-5.5-6.9-10.1-14.6-15-22c-3.9-5.9-7.6-12-13.5-16.6c-6-4.6-12.6-7.6-19.7-10.1
		c-6.7-2.4-13.7-4.4-20.1-7.7c-3.7-1.9-7.3-3.9-10.8-5.9c-4.8-2.8-9.4-5.7-14.2-8.6c-8.3-5-17.1-8.5-26.9-8.7
		c-2.8-0.1-5.8-0.5-8.4,1.1c-5.8-0.9-11.5,1.7-17.3,1.1c-0.5-0.1-1.1,0-1.7,0c-1.1-0.1-1.8,0.2-1.7,1.4c0.1,1.1,0,2.2,0,3.3
		C281.2,112.1,281.2,141.3,281.2,170.5z M269,504.5c0-5.7,0-11.5,0-17.2c0-0.7,0.1-1.5,0-2.2c-0.1-0.4-0.6-1-0.9-1
		c-3.5-0.1-7.2-0.7-10.5,0.2c-2.2,0.6-4.2,0.5-6.3,0.9c-1.9,0.3-3.8-0.4-5.9,0.6c-1.8,0.8-4.3,0.6-6.4,0.5c-1.7-0.1-3.4-1-5.1-1
		c-7,0-13.3-2.3-19.5-5.2c-7.4-3.4-13.9-8.3-20.9-12.3c-6.9-3.9-13.8-7.8-21.2-10.3c-9.1-3.1-18.2-6-26.5-11
		c-6.1-3.7-10.7-8.9-15.1-14c-4.5-5.2-8-11.3-11.4-17.3c-2.3-4.1-4.9-8.1-8-11.6c-5-5.6-10.6-10.8-16-16.2c-0.9-0.9-1.5-1-2.7-0.2
		c-3.7,2.5-7.4,5.2-11.5,7c-5.8,2.6-10.8,6.8-16.7,9.2c-0.8,0.3-1.4,1.2-2,1.9c-0.2,0.3-0.4,0.9-0.2,1.1c1.3,2.1,2.5,4.2,3.9,6.1
		c3.1,4.5,6.4,8.9,9.7,13.2c4.5,6,9,12,14.2,17.3c6.4,6.4,12.7,12.9,19.2,19.2c3,2.9,5.9,5.9,9.4,8.2c7.1,4.8,13.8,10.1,21,14.7
		c7.4,4.8,15,9.3,22.9,13.2c7,3.5,14.1,6.7,21.6,9.3c7.2,2.5,14.5,5,21.8,7.5c4.6,1.6,9.5,2.2,14,3.7c6.3,2.1,12.9,2.6,19.4,4
		c2.9,0.6,5.9,0.4,9,1c6,1.1,12.2,0.9,18.3,1.3c1.8,0.1,2.6-0.1,2.5-2.3C268.9,516.7,269,510.6,269,504.5z M281.2,45.5
		c0,4.3-0.1,8.5,0,12.8c0,2.5,0.3,5.1,0.4,7.6c2.9,0,5.9,0.1,8.8,0.1c0.6,0,1.2-1,1.8-1c2.4-0.1,4.8,0.1,7.2-0.1
		c2.3-0.2,4.5-0.8,6.8-1c2.2-0.2,4.4-0.2,6.6,0c2.3,0.2,4.5,1,6.8,1c2.9,0.1,5.6,0.9,8.2,1.8c8.2,2.7,15.6,7.2,22.9,11.7
		c3.5,2.2,6.9,4.6,10.5,6.7c10.2,5.8,21.6,8.5,32.3,13.1c3.9,1.7,7.9,3.3,11.5,5.7c6.3,4.3,11.5,9.8,16,16c3.8,5.2,7,10.8,10.6,16.1
		c2.6,3.9,5.1,8,8.3,11.5c4.7,5.2,9.9,10,14.8,15c0.9,0.9,1.2,1,2.4,0.2c2.8-1.9,6.2-3,9-4.9c6.1-4.2,12.9-7.3,19.2-11.3
		c2.5-1.6,2.6-1.4,1.3-4.2c-2.2-4.8-5.6-8.8-8.5-13.1c-4.7-6.9-9.8-13.6-15.5-19.5c-11.7-12.1-23.3-24.5-37.2-34.4
		c-8.3-5.8-16.6-11.6-25.2-16.9c-2.6-1.6-5.4-3-8.1-4.5c-6.3-3.4-12.9-6.4-19.5-9.1c-4.4-1.8-8.8-3.8-13.3-5.3
		c-7.6-2.6-15.3-5.1-23.2-7c-9.6-2.3-19-4.9-28.8-5.2c-0.7,0-1.8,0.2-2.1-0.1c-1.9-1.9-4.2-0.6-6.3-1c-2.1-0.4-4.1-0.9-6.2-1.1
		c-2.9-0.2-5.9,0-8.9-0.1c-1.8-0.1-2.6,0.1-2.5,2.3C281.3,33.3,281.2,39.4,281.2,45.5z M269,45.2c0-6.1,0-12.2,0-18.3
		c0-1.2,0-2-1.7-2.1c-6.9-0.4-13.7,1.9-20.6,1.2c-3.6,2.5-8,0.2-11.9,2.1c-2.6,1.2-6.3,0.2-8.8,1.5c-2.4,1.3-4.8,0.6-7.2,1.5
		c-4.3,1.6-8.9,2.6-13.4,3.7c-6.2,1.5-12.1,3.8-18.1,5.9c-6.6,2.4-13,5.2-19.3,8.2c-7.9,3.7-15.6,7.9-23.1,12.5
		c-5.6,3.4-11.3,6.9-16.5,10.7c-5.8,4.3-11.6,8.8-17.1,13.6c-5.4,4.6-10.5,9.6-15.6,14.5c-1.8,1.7-3.1,3.9-4.7,5.8
		c-2.6,3-5.4,5.8-8,8.8c-5.3,6.2-10,12.9-14.7,19.5c-2,2.8-3.5,6-5.6,8.7c-1.1,1.4-0.5,1.9,0.4,2.4c2.4,1.4,4.9,2.5,7.2,4
		c3.3,2.1,6.9,3.9,10.3,5.9c4.2,2.4,8.3,5,12.6,7.2c0.9,0.5,1.3,1.2,2.5,0c4.3-4.6,8.9-8.9,13.3-13.4c1.2-1.3,2.1-2.8,3.2-4.2
		s2.4-2.5,3.3-4.2c1.8-3.5,4.3-6.7,6.5-10.1c3.9-5.9,8.1-11.5,12.4-17.1c3.4-4.4,7.5-7.5,11.9-10.3c9.3-6,19.9-9.1,30.2-12.7
		c7.4-2.6,14-6.4,20.6-10.4c5-3,10-6.1,15.2-8.8c9.5-4.9,19.4-7.8,30.2-7.6c5.2,0.1,10.3,1.9,15.6,1.2c0.2,0,0.4-0.1,0.5,0
		c2.8,2.3,6,0.6,9,1.1c1.6,0.3,1.8-0.6,1.8-1.9C269,57.8,269,51.5,269,45.2z M281.2,504.5c0,6.1,0.1,12.2-0.1,18.3
		c-0.1,2.1,0.7,2.6,2.5,2.3c2.6-0.4,5.2-0.8,7.9-1.1c4.1-0.4,8.2-0.1,12.3-0.9c5.2-0.9,10.5-1.3,15.7-2.4c3.1-0.7,6.5-0.2,9.4-1.3
		c3.4-1.2,7-1.7,10.4-2.9s7-2,10.4-3c11.9-3.7,23.5-8.3,34.7-13.9c9.2-4.6,18.3-9.5,26.9-15.3c5.6-3.7,11-7.5,16.2-11.7
		c6.6-5.2,13.2-10.4,19.2-16.2c5.3-5.2,10.8-10.3,15.5-16.2c3.8-4.7,8.1-9.1,11.6-14.1c3.9-5.6,8.4-10.7,11.4-16.9
		c2.3-4.7,2.6-4.6-1.9-7.2c-0.6-0.3-1.2-0.6-1.8-0.9c-3.2-1.7-6.5-3.2-9.5-5.1c-4.8-3.1-9.8-5.8-14.8-8.5c-1.8-1-2.6-1.1-4,0.4
		c-5.9,5.9-11.3,12.1-16.5,18.6c-4.4,5.5-7.7,11.6-11.7,17.3c-2.6,3.7-4.9,7.7-7.9,11.1c-6.3,7.3-14,12.7-23,16.6
		c-6.9,3-14.1,5.3-21.1,7.8c-6.4,2.3-12.2,5.6-17.9,9c-4.7,2.9-9.7,5.3-14.3,8.4c-2,1.4-4.6,1.8-6.2,3.9c-3-0.3-5,2.1-7.8,2.6
		c-2.9,0.5-5.6,2.1-8.6,1.8c-3-0.4-5.5,1.3-8.4,1.2c-5.2-0.1-10.3-1.9-15.6-1.2c-3.7-2.1-7.8-0.7-11.7-1.1c-1.2-0.1-1.5,0.5-1.5,1.6
		C281.2,491.9,281.2,498.2,281.2,504.5z M525.1,274.3c-0.6-5.3,1-11.9-1-18.4c-0.9-3,0.5-6.3-0.9-9.6c-1.2-3,0-6.6-1.3-10
		c-1.1-2.7-0.4-6.1-1.4-8.9c-1-2.8-1-5.8-1.9-8.6c-1.3-4.3-2.1-8.7-3.5-13c-1.5-4.4-1.8-9.1-4.4-13.1c-1.9-9.7-7.1-18.1-10.8-27.1
		c-1.3-3.2-3.1-6.1-4.8-9.1c-0.6-1.1-1.3-0.8-2.2-0.2c-6.6,3.7-13.3,7.1-19.8,11.1c-2.4,1.5-4.7,2.9-7.2,4c-1.9,0.8-2,1.7-0.9,3.7
		c0.5,0.9,1.1,1.8,1.5,2.7c1.4,2.9,3.1,5.8,4.1,8.8c1.7,5.3,3.7,10.6,3.4,16.3c0,0.4-0.2,0.9,0,1.1c2.1,2,0.7,4.5,1.1,6.8
		c0.4,2.2,0.8,4.5,1.1,6.7c0.5,3.3,0.4,6.8,1.4,10c1.2,3.6,1.3,7.5,3.1,10.9s2.4,7.1,3.8,10.6c2.5,6.3,4.4,12.9,4.8,19.5
		c0.4,5.9,0.5,11.8-0.8,17.9c-1.4,6.8-3.6,13.3-5.9,19.8c-1.5,4.4-3,8.7-4.4,13.1c-0.8,2.7-0.2,5.5-1.2,7.8
		c-0.8,1.8-0.6,3.5-0.9,5.2c-0.3,1.9-1,3.8-1,5.6c0,6.1-1.1,12-2.3,17.9c-0.8,4.1-4,13.6-7.2,17.5c-2.4,2.8-2,3.6,1.1,5.3
		c1.4,0.7,2.7,1.5,4,2.3c6.9,3.9,13.9,7.6,20.5,12.2c2.3,1.6,3.2,1.3,4.6-1.2c1.7-3.2,3.4-6.3,5.1-9.5c1-2,1.8-4.1,2.8-6.1
		c3.2-6.6,5.8-13.5,8-20.5c2.2-6.9,4.2-13.8,5.9-20.9c1.4-5.9,2.1-11.9,4.1-17.6c-0.7-2.8,1.1-5.2,1.1-7.9c0-2.7-0.3-5.4,1.1-7.9
		c-0.5-7.3,1.9-14.4,1.1-21.7C525,278.4,525.1,276.9,525.1,274.3z M25,274.6c0,3.7-0.1,7.4,0,11.1c0.2,3.7-0.3,7.4,0.9,11.2
		c1,3.3-0.3,7.1,1.3,10.6c-0.7,5.8,2.3,11.1,2.2,16.8c1.9,1.9,0.6,4.4,1.5,6.6c1.7,4.3,2.8,8.9,3.8,13.3c2,8.8,5.5,17,8.5,25.3
		c2.7,7.5,6.9,14.5,10.4,21.7c0.4,0.8,0.6,1.6,1.2,2.2c0.4,0.4,1.6,0.8,1.8,0.6c2.3-2.6,5.7-3.3,8.5-5c5.6-3.5,11.2-6.8,16.8-10.2
		c1.2-0.7,3-0.7,3.7-1.7c1.5-2-1.3-2.5-1.9-3.8c-2.4-4.9-4.7-9.9-6.4-15.1C76,354.3,76,350,75,345.9c-0.5-2.1,0.7-4.9-0.3-6.5
		c-1.4-2.2-0.8-4.2-0.8-6.3c-0.1-2.2-0.9-4.2-1.1-6.2c-0.3-3.5-1.1-6.8-2.3-10.2c-2.6-7.4-4.9-15-7.3-22.4c-1.6-4.9-3.1-9.7-2.7-15
		c0.1-1.4,0.6-2.9-0.7-4.1c-0.3-0.3-0.4-1.3-0.2-1.4c1.6-1.3,1-3.1,0.9-4.6c-0.2-5.2,1.8-9.9,2.9-14.9c1.9-7.9,6-14.9,7.5-22.9
		c1-5.3,3-10.4,2.9-16c0-1.1-0.4-2.5,0.1-3.3c1.5-2,0.8-4.2,1-6.2c0.3-2.1,0.8-4.1,1.1-6.2c0.6-5.2,1.9-10.2,3.8-15
		c1.5-3.7,3.3-7.2,5.9-10.3c0.6-0.8,0.5-1.4-0.6-2c-6.6-3.7-13.1-7.5-19.7-11.2c-2.6-1.4-4.7-3.5-7.6-4.4c-2.7-0.9-2.6-1.2-3.9,1.3
		c-5.4,10.1-10.1,20.5-14.1,31.3c-2.1,5.6-4,11.3-5.7,17c-1.8,5.9-3,12.1-4.4,18.1c-0.5,2.1-1.5,4.5-1.2,6.7
		c0.3,2.7-1.4,4.8-1.2,7.3c0.2,2.3-1,4.6-1,6.7c0,7.5-2,14.8-1.3,22.3C25.2,269.8,25,272.2,25,274.6z"/>
	<path class="st0" d="M407.4,306.6c-10.5,1.1-18-4.9-24.9-12.3c-2.7-5.8-5.9-11.2-6.1-18c-0.3-7.4,2.1-13.8,5.8-19.8
		c2.3-3.7,5.5-7.2,9.7-9.2c2.2-1,4.3-2.1,6.4-3.1c0.3-0.2,0.6-0.8,0.8-0.7c4.9,0.8,9.7-3.4,14.5-0.1c2.5-0.2,4.8,0.5,7.1,1.5
		c5.8,2.4,10.1,6.6,14.2,11.1c2.5,2.7,3.7,6.3,4.5,9.7c0.7,3.1,1.4,6.2,1.4,9.5c0.1,6-2.1,11.3-4.7,16.4c-1.2,2.3-3.1,4.3-5,6.2
		c-2,2-4.1,4.6-6.6,5.3c-4.6,1.4-8.8,4.6-14.1,3.6C409.8,306.5,408.9,306.6,407.4,306.6z M408.1,294.5c3.1-0.4,5.8,0.5,8.3-1.2
		c5.3-3.4,10.2-6.6,11.3-13.8c1-6.8,1.4-8.4-1.3-13.6c-1.8-3.5-4.6-6-7.8-8.1c-2.2-1.5-4.9-2.5-7.4-3.4s-4.9,0.7-7.3,1.1
		c-4,0.7-7.1,3.5-10.4,5.6c-3.3,6-6.2,11.7-3.9,19.2C391.9,287.3,400.7,296.1,408.1,294.5z"/>
	<path class="st0" d="M435.1,336.6c-3.7-0.2-7.1,0.4-10.4-1.1c-2.3-1-4-3.4-3.8-6.1c0.2-2.6,2.1-4.3,4.4-5.1c4.2-1.3,8.5-1,12.8-1.1
		c2.3-0.1,4.5,0.2,6.7,1.1s3.8,3,3.8,5.6s-1.6,4.6-3.8,5.6C441.5,337,438.1,336.4,435.1,336.6z"/>
	<path class="st0" d="M343.4,281.1c-2.4,0-4.8,0-7.2,0c-4.2-0.1-5.3-1-6.5-5.2c-0.9-3.1,1.5-6.9,4.7-6.9c5.5-0.1,11.1-0.1,16.6,0
		c3.9,0.1,5.6,1.8,5.6,5.4c0,4.2-1.8,6.6-5.4,6.7C348.6,281.2,346,281.1,343.4,281.1z"/>
	<path class="st0" d="M434.8,225.7c-2.6,0-5.2-0.1-7.7,0c-1.5,0.1-2.7-0.3-3.9-1.5c-1.7-1.8-3.2-3.4-2-6.1c1-2.4,3.4-4.5,5.8-4.6
		c5.2-0.1,10.3-0.2,15.5,0c5.2,0.3,7.3,4.8,5.1,9.5c-1,2.1-2.6,2.5-4.4,2.6C440.4,225.8,437.6,225.7,434.8,225.7z"/>
	<path class="st0" d="M139.9,306.5c-6,1.3-11.5-1.1-16.2-4.4c-6.4-4.5-11.6-10.1-13.5-18.4c-1.2-5.3-1.1-10.5-0.7-15.6
		c0.4-4.1,2.7-8.1,5.2-11.6c1.3-1.9,2.6-3.9,4.3-5.4c2.2-1.9,4.7-3.6,7.3-5.1c1.7-1,3.7-1.9,5.7-2.3c13.2-3.1,25,0.3,33.8,10.5
		c3.7,4.3,6.5,9.3,6.9,15.4c0.2,2.4,1.3,4.9,0.8,7.3c-1.2,7.3-3.1,14.3-9,19.5c-2.7,2.4-4.9,5.4-8.2,7
		C151.2,305.7,145.9,307.3,139.9,306.5z M140.8,294.4c5.3,0.4,7.2-0.6,11.9-3.4c3.5-2,6.1-5.3,7-9c0.7-2.9,3.5-6.1,0.6-9.4
		c-0.3-0.3-0.1-1.1,0-1.6c0.1-3.4-1.6-6.1-3.7-8.4c-3.4-4-7.3-7.4-13.1-7c-3.5-2.7-7-0.5-9.8,0.8c-10.9,4.9-13.7,13.4-12,22.8
		C123.1,287.5,133.1,296.1,140.8,294.4z"/>
	<path class="st0" d="M114.4,336.6c-2.5-0.3-5.5,0.4-8.5-1c-3.4-1.6-4.3-2.1-4.3-5.7c0-3.5,0.9-4.1,4.3-5.7c3-1.4,6-0.9,9-0.9
		s5.9,0,9,0.8c3.3,0.9,3.8,3.4,5.4,5.3c0.2,0.2-0.2,1-0.3,1.5c-1.3,3.8-4.5,5.1-8,5.7C118.9,336.8,116.8,336.6,114.4,336.6z"/>
	<path class="st0" d="M206.9,281.1c-2.6,0-5.2,0.1-7.7,0c-3-0.1-5.8-2.3-6.7-5c-0.7-2.4,2.4-7.1,5-7.2c5.9-0.1,11.8-0.1,17.7,0
		c2,0,4.4,1.1,4.8,2.7c0.5,2.2,1.2,4.9-1.2,7.1c-1.7,1.6-3.3,2.6-5.7,2.4C211,280.9,209,281.1,206.9,281.1z"/>
	<path class="st0" d="M114.8,225.7c-2.8,0-5.5,0-8.3,0c-3.2,0-4.9-1.8-4.9-5c0-1.8-0.2-3.4,1.5-5s3.4-2.4,5.8-2.3
		c4.4,0.2,8.9,0.1,13.3,0c2.1-0.1,3.9,0.7,5.2,2.1c1,1,1.6,2.7,1.9,4.1c0.5,2-2.8,5.9-5,6C121.1,225.7,117.9,225.7,114.8,225.7z"/>
	<path class="st0" d="M208.6,192.6c-9.5,0.8-16.9-3.3-23.1-10c-3.9-4.2-6.5-9.3-7.6-15.1c-0.4-2.1-1.1-4-1-6.2
		c0.1-7.4,2.4-13.9,6.7-19.9c4.2-6,10.2-9.5,16.9-11.8c1.1-0.4,2.5-0.2,3.7-0.4c1.4-0.2,2.9,0.5,4.1-0.8c0.4-0.5,1.7-0.3,2.5-0.1
		c0.8,0.1,1.6,0.9,2.4,0.9c7.2,0.3,12.8,3.7,18.2,8.3c5.2,4.5,8.1,10.3,9.4,16.6c1.2,5.5,1,11.4-1.1,17c-3.9,10.6-11.5,17.4-22,20.7
		C215,192.8,211.7,192.4,208.6,192.6z M209.7,180.2c9.5,1.6,19.8-9.8,19.5-19.1c-0.5-13.2-9.3-18.6-19.4-20.8
		c-4.5,1.7-9.5,1.7-13.4,5.3c-4.6,4.2-7.1,9.4-7.1,15.3c0,5,1.6,10,5.8,13.6C199.3,178.2,204,180.9,209.7,180.2z"/>
	<path class="st0" d="M143.5,151.5c2.9-0.8,4.6,0.9,5.6,3c2.1,4.3,4.6,8.4,7.3,12.4c1.8,2.6,0.2,7.3-2.8,9.4c-2,1.4-6.1,0.1-7.7-2.6
		c-2.7-4.6-4.9-9.5-7.9-13.8c-1.7-2.4-0.6-4.1,0.2-5.7C139.2,152.5,140.9,150.6,143.5,151.5z"/>
	<path class="st0" d="M252.3,114.6c0.1,4.8,0,4.9-3.3,6.3c-2.6,1.1-4.8,0.8-6.8-1.2c-2.6-2.5-3.8-5.8-5.4-8.8
		c-1.2-2.1-1.9-4.5-3.4-6.3c-1.9-2.2-0.8-4,0.2-5.7c1.2-2.1,3.3-3.1,5.8-2.9c0.8,0.1,1.8,0.4,2.3,1c1.4,1.6,2.8,3.2,3.9,5
		c2,3.2,3.8,6.5,5.6,9.8C251.9,112.9,252.2,114.3,252.3,114.6z"/>
	<path class="st0" d="M237.5,202.2c1.8,1.7,4.4,3.2,5.8,5.5c2.7,4.2,4.5,8.8,7,13.1c0.8,1.4,0.9,2-0.2,3.2c-0.7,0.7-0.9,1.9-1.6,2.6
		c-2.7,2.8-5.1,2.8-8,0.1c-1.2-1.2-2.2-2.7-3.1-4.2c-1.6-2.6-3.3-5.3-4.7-8c-0.8-1.5-1.7-2.9-1.6-4.9c0.2-3.7,1.3-5.5,4.8-6.8
		C236.3,202.6,236.6,202.5,237.5,202.2z"/>
	<path class="st0" d="M205.9,420.8c-3.9,1.2-8.4-0.7-12.5-2.4c-5.3-2.1-9.6-6.1-13.1-10.7c-5.4-7.2-6.6-15.7-5.4-24.2
		c0.8-5.6,2.8-11.1,7.4-15.2c2.7-2.4,4.8-5.4,8.1-7.1c1.8-0.9,8.3-3.7,10.1-3.6c2,0.1,3.8-0.8,5.6-1s3.7,0.9,5.6,0.9
		c3.5-0.1,6.5,1.2,9.4,2.8c9.2,4.9,14.6,12.4,17,22.7c1.3,5.6,0.6,10.5-0.7,15.5c-1.4,5.3-4.2,9.9-8.1,13.8
		c-4.3,4.3-9.9,6.3-15.3,8.4C211.8,421.5,209.2,420.8,205.9,420.8z M207,408.6c5.7,0.5,10.1-2.3,14.1-5.9c4.2-3.8,5.4-8.9,5.7-14.2
		c0.3-4.5-2.8-8-4.3-12c-1-2.5-3.5-2.9-5.2-4.3c-3.1-2.6-7.5-3.3-11.2-3.2c-9.2,0.1-18.8,8.4-19.2,20.2
		C186.3,399.7,198,410,207,408.6z"/>
	<path class="st0" d="M157,380.3c-0.1,0.2-0.6,1.3-1.1,2.4c-2.2,4.7-4.8,9.1-7.7,13.4c-2.5,3.6-7.5,3.5-9.2,0.7
		c-1.3-2.3-2.6-4.1-0.9-7.1c2.3-4.2,5.1-8.1,7-12.5c0.8-1.9,2.7-4.3,6-4C154.8,373.4,157,375.4,157,380.3z"/>
	<path class="st0" d="M237.2,346.5c-5.7,1-7.2-4.7-5.3-8.9c2.1-4.7,4.7-9.2,7.8-13.4c2.6-3.6,5.1-4.2,8.6-2.1c2,1.2,2.8,4.8,2,7.1
		c-2,5.4-5.6,9.8-8.3,14.8C241.1,345.7,239.5,347.4,237.2,346.5z"/>
	<path class="st0" d="M252.7,434.1c-0.5,1.6-0.8,3.2-1.5,4.5c-2.1,3.9-4.5,7.7-6.6,11.6c-1.3,2.5-4.1,2.5-6.1,3.9
		c-1.1-1.8-4.1-0.4-4.9-2.7c-0.7-1.9-2.2-3.9-0.8-5.9c3.4-5,5.4-10.9,9.7-15.3c2.5-2.5,6.9-2.3,9,0.4
		C252.2,431.5,252.3,432.8,252.7,434.1z"/>
	<path class="st0" d="M308.8,389.2c-0.3-5.3,0.9-10,3.4-14.7c2.6-5.2,6.8-8.8,11.1-12.3c3.8-3.2,8.4-4.9,13.6-4.6
		c1.7,0.1,3.5-1.3,5-0.9c3.6,0.9,7.4,0.5,10.7,2.1c4.9,2.4,9.7,5.3,13.1,9.7c2.7,3.5,5.8,7.5,6,11.8c0.2,3.9,3.6,7.8,0.5,11.7
		c0.6,4.6-1.5,8.5-3.3,12.5c-2.2,4.8-6.2,8.1-10,11.2c-2.9,2.4-6.8,3.9-10.5,5.1c-2.5,0.8-5.5,0.3-8.3,0.1c-2.4-0.2-5.1,1-7.3-1.1
		c-10.6-0.9-20.3-11.8-23.3-22.4C308.6,394.7,308.9,391.9,308.8,389.2z M359.8,389.6c0.7-6.8-1.9-12-6.9-16.2
		c-1.5-1.3-9.9-4.7-11.9-4.7c-0.7,0-1.4,0.2-2.1,0.3c-0.8,0.2-1.6,0.6-2.5,0.7c-5.8,0.5-12.3,6-14.4,11.6c-1.4,3.7-1.1,7.4-1,11.2
		c0.2,4.8,3,8.6,6.3,11.5c4,3.5,9,5.1,14.6,4.7c5-0.4,9.4-2.3,12.5-5.7C357.9,399.4,361.1,395,359.8,389.6z"/>
	<path class="st0" d="M318.9,339.4c0.1,3.7-1.1,5.6-3.3,6.6c-2.7,1.1-4.7,0.7-6.8-1.2c-2.6-2.5-3.8-5.8-5.4-8.8
		c-1.2-2.1-1.9-4.5-3.4-6.3c-2-2.2-0.7-4.1,0.2-5.7c1.1-2.1,3.3-3.1,5.8-2.9c0.8,0.1,1.7,0.5,2.3,1c2.2,2,3.7,4.6,5.2,7.2
		c1.3,2.2,2,4.8,4.1,6.7C318.5,336.8,318.6,338.8,318.9,339.4z"/>
	<path class="st0" d="M412,391.5c0,4.7-1,6.3-3.9,7.2c-2.2,0.7-5.9-1-7.2-3.2c-2.4-4.1-4.9-8.3-7.3-12.4c-0.2-0.3-0.8-4.2-0.7-4.6
		c0.4-1.6,0.4-3.3,2.5-4.3c4-1.9,6.7-1.1,8.9,2.8s4.7,7.6,6.9,11.5C411.9,389.7,412,391.2,412,391.5z"/>
	<path class="st0" d="M317.1,447.2c-0.4,1.4-0.5,2.9-1.2,3.7c-1.1,1.3-2.7,2.2-4.2,3.1c-0.3,0.2-1-0.1-1.5-0.3
		c-2.4-1-4.3-2.7-5.7-4.7c-1.9-3-3.4-6.3-5.2-9.4c-1.2-2.1-1.5-4.2-1.6-6.5c0-1.5,0.6-2.3,1.6-3.2c2.8-2.6,5.2-2.7,8,0
		c1.2,1.2,2.2,2.7,3.1,4.2c1.6,2.6,3.2,5.3,4.6,8C315.9,443.7,316.4,445.5,317.1,447.2z"/>
	<path class="st0" d="M343.1,192.2c-4.7,1.3-9.2-0.4-13.3-2.2c-5.5-2.4-10.4-6-13.4-11.6c-1-2-1.8-4.1-3.2-5.8
		c-1.6-1.9-0.1-4.7-2.1-6.3c0.1-5.2-0.5-10.5,1.2-15.5c3.9-11.1,12-17.7,22.4-21.3c4.3,0.8,8.5-3.2,12.8-0.2
		c4.3-0.5,7.7,1.9,11.3,3.4c3.2,1.4,6,3.8,8.3,6.6c6,7.4,9.6,15.8,8.1,25.3c-0.7,4.6-2.2,9.3-4.8,13.5c-2.8,4.5-6.4,8.4-11,10.7
		C354.5,191.3,349.1,193.4,343.1,192.2z M343.5,180.4c2.1-0.2,4.4-0.1,6.4-0.8c8.7-3.1,16.8-15.3,11.8-26.2c-2-4.3-4.8-7.4-8.6-9.8
		c-4.1-2.6-6.8-2.5-12.5-2.4c-5.6,0.1-12.3,5.8-15,10.6c-3.1,5.7-2.7,12-0.2,17.7c1.7,3.8,4.6,6.1,7.6,8.3
		C335.8,180,339.5,181.1,343.5,180.4z"/>
	<path class="st0" d="M316.7,102c-0.1,1.6,0.1,3-1,4.6c-2.6,3.8-4.4,8.1-6.9,12.1c-2.1,3.5-7.1,3.9-9.8,1.2
		c-0.9-0.9-1.2-1.7-1.2-2.9c0.1-2.7,0.3-5,2-7.5c2.1-3.1,3.9-6.5,5.7-9.8c2.3-3.9,4.4-4.3,8.5-2.8C317.1,98,316.6,99.9,316.7,102z"
		/>
	<path class="st0" d="M318.9,209.4c0.2,1.6-0.7,2.7-1.6,4.2c-2.1,3.5-4.3,7.1-6.1,10.7c-1.1,2.4-3.1,3.2-4.9,4.5
		c-1.6,1.1-3.1-0.3-4.4-1c-2.7-1.3-3.8-5-2.4-7.7c2.6-5,5.4-9.9,8.3-14.8c0.8-1.4,6-2.4,8-1.8C317.6,204,318.9,206.5,318.9,209.4z"
		/>
	<path class="st0" d="M406.4,151.4c5.8-0.7,6.7,4.8,5.2,8.7c-1,2.7-2.8,5.1-4.2,7.6c-1,1.8-2.1,3.6-3.1,5.4c-2.2,4-4.5,4.8-8.4,2.7
		c-2.2-1.1-3.1-3.9-2.8-6.2c0.3-2.2,1.3-3.9,2.4-5.7c2-3,3.6-6.2,5.4-9.3C402.2,152.5,403.7,150.7,406.4,151.4z"/>
</g>
</svg>
