<?xml version="1.0" encoding="utf-8"?>
<!-- Generator: Adobe Illustrator 22.1.0, SVG Export Plug-In . SVG Version: 6.00 Build 0)  -->
<svg version="1.1" id="Camada_1" xmlns="http://www.w3.org/2000/svg" xmlns:xlink="http://www.w3.org/1999/xlink" x="0px" y="0px"
	 viewBox="0 0 121 121" style="enable-background:new 0 0 121 121;" xml:space="preserve">
<style type="text/css">
	.st0{fill:none;stroke:#6C4D4D;stroke-width:4.5;stroke-linecap:round;stroke-linejoin:round;stroke-miterlimit:10;}
</style>
<g id="Facebook">
	<path class="st0" d="M83.6,117.6l26.4,0c4.3,0,7.8-3.5,7.8-7.8V11.1c0-4.3-3.5-7.8-7.8-7.8H11.1c-4.3,0-7.8,3.5-7.8,7.8v98.8
		c0,4.3,3.5,7.8,7.8,7.8l47.7,0l0-0.3V68.6H45.4V51.1h13.5V32.6c1.4-14.9,16.6-15.1,16.6-15.1h17.8v17.1l-10.1,0.2
		c-5,0.2-5.3,4.8-5.3,4.8v11.5h15.6l-1.9,17.5H77.8v48.8l0,0.2L83.6,117.6"/>
</g>
<g id="Layer_1">
</g>
</svg>
