<?xml version="1.0" encoding="utf-8"?>
<!-- Generator: Adobe Illustrator 22.1.0, SVG Export Plug-In . SVG Version: 6.00 Build 0)  -->
<svg version="1.1" id="Camada_1" xmlns="http://www.w3.org/2000/svg" xmlns:xlink="http://www.w3.org/1999/xlink" x="0px" y="0px"
	 viewBox="0 0 550 550" style="enable-background:new 0 0 550 550;" xml:space="preserve">
<style type="text/css">
	.st0{fill:#6C4D4D;}
</style>
<g>
	<path class="st0" d="M7.6,275c0-4.5-0.1-9.1,0-13.6c0.2-6.1,0.3-12.2,1.2-18.2c0.7-5,1.3-10,2.3-14.9c1.4-6.9,2.7-13.9,4.5-20.7
		c1.7-6.6,4.5-12.9,6.4-19.4c4.2-14.5,10.9-28,17.7-41.3c3.8-7.4,8.3-14.4,13.1-21.2c3.2-4.5,6-9.2,9.3-13.7
		c1.6-2.2,3.5-4.2,5.2-6.3c9.1-11.2,19.4-21.3,30-31.1c6.2-5.7,12.8-11.2,20-15.8c3.2-2,6-4.6,9.1-6.7c5-3.3,10-6.6,15.3-9.6
		c5.9-3.3,12.1-6.2,18.2-9.3c9.7-4.9,19.7-8.9,30-12.3c3.3-1.1,6.6-2.4,9.9-3.4c4.2-1.3,8.6-2,12.7-3.4c2.5-0.8,5.3-0.8,7.7-1.9
		c2.6-1.1,5.2-0.3,7.9-1.3c3.4-1.4,7.5-0.9,11.3-1.4c2.5-0.3,4.8-1.4,7.5-1.2c2.5,0.2,5.1,0.4,7.5-1c0.9-0.5,2.2-0.1,3.3-0.1
		c7.7,0,15.5,0.3,23.2-0.1c8.2-0.4,16.2,1.6,24.4,1.3c1.7-0.1,3.5,0.7,5.2,1.1c1.9,0.4,3.8,0.8,5.8,1.1c1.7,0.3,3.4,0,5.3,0.9
		c2,1,4.9,0.7,7.4,1.2c11,2.1,23.1,5.1,36.1,9.8c6.9,2.5,13.7,5.1,20.3,8.4c3.6,1.8,7.5,2.9,11,4.9c8.6,4.8,17.2,9.7,25.4,15.1
		c3.2,2.2,6.6,4.2,9.8,6.4c3.4,2.4,6.6,5,9.9,7.6c10.5,8.8,20.5,18,29.6,28.1c6.5,7.3,12.9,14.7,18.7,22.7
		c4.7,6.5,9.1,13.3,13.7,19.9c3.6,5.1,5.8,11.2,9,16.6c2.7,4.7,5,9.6,7.4,14.5c2,4,3.6,8.3,5,12.6c1.8,5.3,4.2,10.4,5.5,15.8
		c1.3,4.9,2.9,9.8,4.2,14.7c0.6,2.2,0.3,5,1.5,6.7c1.6,2.2,0.1,4.5,1.6,6.8c1.3,1.9,0.4,5.2,1.3,7.9c1,3.4,0.4,7.3,1.4,10.8
		c1.3,4.6,0.2,9.3,1.2,13.7c1.3,5.7,0.7,11.4,0.9,17.1c0.2,5.6,0,11.3,0.1,17c0,2.9-1.6,5.5-1.3,8.6c0.3,2.6,0.8,5.5-1,8
		c-0.4,0.5,0,1.5-0.1,2.2c0,2.3,0.1,4.6-1,6.9c-0.9,1.8,0.8,4.4-1.2,6.3c0.8,5-2.2,9.4-2.3,14.3c-0.1,1.9-0.3,4-1.2,5.7
		c-2.3,4.6-2.7,9.8-4.5,14.5c-1.7,4.6-2.8,9.4-4.7,13.9c-5.1,12-10.4,24-16.8,35.4c-4.9,8.7-10,17.2-16.2,25
		c-4,5-7.5,10.4-11.3,15.7c-0.2,0.3-0.5,0.5-0.8,0.8c-7.5,7.8-14.5,16.1-22.5,23.4c-5.8,5.2-11.7,10.3-17.9,15.1
		c-8.2,6.4-16.7,12.4-25.4,18c-7.7,5-16.3,8.9-24.6,13c-11.3,5.6-23,10.1-35,13.7c-3.7,1.1-7.5,1.8-11,3.3
		c-3.6,1.5-7.5,1.6-11.1,3.2c-2.7,1.2-6,0.9-9.1,1.3c-1.7,0.3-3.5,0.7-5.2,1.1c-1.6,0.3-3.4-0.7-4.7,0.9c-0.3,0.3-1,0.2-1.6,0.2
		c-5.3,0.4-10.7,0.3-15.9,1.2c-11.7,2.1-23.5,0.6-35.2,1c-2.7,0.1-5.3-0.8-8-1c-2.6-0.2-5.5,0.6-7.8-0.2c-2.6-1-5-0.9-7.5-0.9
		c-2.6,0-4.9-1.1-7.4-1.4c-5.8-0.7-11.6-1.8-17.2-3.4c-3.5-1-7.4-0.9-10.5-3.2c-6.1-0.4-11.4-3.4-17.1-5c-6.7-2-13-4.9-19.4-7.8
		c-5.1-2.3-10.2-4.6-15.1-7.3c-10.4-5.6-20.8-11.4-30.1-18.8c-5-4-10.6-7.3-15.6-11.3c-4.6-3.7-8.9-7.9-13.2-12
		c-4.1-3.9-8.1-7.9-12-12c-4-4.2-8-8.3-11.6-12.8C62,437.2,55.7,429,50,420.3c-3-4.7-5.5-9.8-8.5-14.6c-3.6-5.6-6.2-11.7-9.2-17.7
		c-4.5-9.1-8.1-18.5-11.1-28.2c-1.2-3.7-2-7.5-3.5-11c-1.6-3.8-2-7.8-3.3-11.6c-1.6-4.9-1.9-10-3.3-15c-1-3.6-0.8-7.6-1.3-11.4
		c-0.3-2.5-0.7-5-1.1-7.4c-0.4-2.3,1-4.8-1-7c-0.6-0.6-0.1-2.2-0.1-3.3C7.6,287,7.6,281,7.6,275z M68.7,273.9c0,4-0.8,7.4,0.2,10
		c1.2,3.1,1.2,6.5,3,9.5c1.6,2.8,2.2,6.2,3,9.5c1.1,4.6,3,8.9,4.2,13.6c1.2,4.6,1.7,9.4,3,14c0.8,2.9,0.2,6.1,1.1,9.1
		c0.8,2.9,0.5,6,1.1,9.1c1.5,7.8,1.8,13,8.1,21.6c0.2,2.7,2.1,1.8,3.1,1.2c5.9-4.1,12.4-7.3,18.7-10.8c6.1-3.4,12.1-7,18.2-10.5
		c6.6-3.7,13.1-7.6,19.7-11.3c6-3.3,11.9-6.8,17.7-10.3c8-4.8,16.2-9.2,24.1-14.2c6.5-4.1,13.3-7.7,20.1-11.5
		c3.1-1.7,6.5-2.9,9.2-4.9c5.1-3.8,10.9-6.6,16.4-9.7c6.9-3.9,13.4-8.4,20.7-11.4c1.7-0.7,1.8-2.3,0.2-3.1c-2-1-4.3-1.6-6.1-2.9
		c-6.1-4.2-12.8-7.3-19.1-11.1c-5.9-3.5-12.1-6.5-17.8-10.2c-7.9-5.1-16.2-9.4-24.1-14.3c-7-4.3-14.1-8.6-21.4-12.5
		c-8.8-4.7-17.2-10.2-26-14.9c-3.1-1.6-6.4-3-9.2-5c-5.4-3.8-11.2-6.6-16.8-9.9c-6.6-4-13.5-7.6-19.9-11.9c-1.3-0.9-2.8-1.4-4.2-2
		c-2.1-0.9-3.4-0.7-4.2,1c-1,2.1-1.8,4.2-3.6,5.9c-0.6,0.5-4.5,18-4.6,19c-0.4,4.9-0.4,9.9-1.3,14.8c-0.5,2.7-0.3,5.6-1.2,8
		c-1.4,3.8-1.8,7.9-3.2,11.7c-1.5,3.9-3,7.8-4.1,11.8C71.4,258.8,67.4,266.3,68.7,273.9z M481.4,275.3c0.4-5.1-0.7-9.8-2-14.5
		c-1.7-6.1-3.6-12.1-5.9-17.9c-2-5.3-3.2-10.8-4.5-16.2c-0.8-3.6-0.9-7.2-1.4-10.8c-0.3-2.3-1.2-4.6-0.8-6.9
		c0.4-2.5-1.2-4.5-1.2-6.9c0-6.2-2.5-11.7-4.6-17.3c-0.9-2.3-2.4-5-4.4-6.2c-2-1.3-3.9,2-6.3,2.2c-0.8,0.1-1.6,0.7-2.3,1.2
		c-6.5,4.6-13.6,8.1-20.4,12.3c-3,1.8-6.4,3-9.2,4.9c-8,5.5-16.6,9.9-25,14.6c-5.9,3.4-11.8,7-17.8,10.2c-6.9,3.8-13.7,8-20.5,12
		c-3,1.8-6.2,3.2-9.2,5c-5.9,3.5-11.7,7.3-17.6,10.7c-3.8,2.2-8,3.7-11.6,6.1c-8.7,5.7-17.7,10.7-26.9,15.5
		c-1.7,0.9-1.8,2.3-0.3,3.2c7.4,4,14.6,8.5,21.9,12.5c8.8,4.8,17.2,10.2,26,14.9c3.1,1.6,6.2,3.2,9.2,5c5.9,3.5,11.7,7.3,17.6,10.7
		c3.8,2.2,8,3.7,11.6,6.1c5.3,3.5,10.9,6.4,16.3,9.8c7.6,4.7,15.4,9.1,23.2,13.5c8.7,4.9,17.2,10.2,26,14.9c3.2,1.7,6.6,3.4,9.6,5.4
		c4.7,3.1,4.5,3.1,8-1.6c1.2-1.6,2.4-3.1,3.1-5c2.2-6,3.2-12.3,4.5-18.5c0.5-2.2-0.2-4.6,0.2-6.7c0.4-2.3,1.6-4.5,1-6.9
		s1.2-4.1,1.2-6.3c0.1-4.3,1.8-8.3,2.8-12.4c1.7-6.9,4.7-13.5,6.8-20.4C480.2,286.1,482.1,280.9,481.4,275.3z M268.9,169.1
		c0-28.8,0-57.6,0-86.4c0-2.6-0.1-5.3-0.1-7.9c-2.8-0.2-5.5-0.2-8.3-0.5c-1.7-0.2-3.4-0.9-5.2-1.1c-3.6-0.3-7.2-0.1-10.9-1
		c-5.2-1.3-10.5,0.6-15.8,1.1c-1.2,1.8-3.3,0.4-4.6,1.2c-2.6,1.8-5.7,2.6-8.5,4c-3,1.5-5.8,3.4-8.6,5.2c-5.4,3.3-10.7,6.8-16.2,9.9
		c-9.1,5-19.3,7.1-28.7,11.3c-4.6,2.1-9.2,4.3-13.6,6.8c-4.5,2.5-7.9,6.3-10.8,10.6c-3.3,5.1-6.8,10-10.2,15
		c-2.8,4.1-5.1,8.6-8.2,12.4c-4.9,5.8-10.3,11.2-15.5,16.8c-1.1,1.1-1,2.2,0.5,2.8c6.1,2.3,11.3,6.3,16.9,9.5
		c6.9,3.9,14,7.5,20.5,12c2.9,2,6.3,3,9.2,4.9c5.6,3.8,11.5,6.9,17.3,10.2c6.5,3.7,13.2,7.3,19.7,11.1c7,4,14,8.2,21,12.2
		c3,1.7,6.2,3.3,9.2,5.2c6,3.9,12.4,7.3,18.7,10.8c5.5,3.1,10.8,6.5,16.4,9.6c4.6,2.6,9.1,5.3,13.7,7.9c1.3,0.7,2.1,0.8,2.1-0.9
		c0.1-1.5,0-3,0-4.5C268.9,227.9,268.9,198.5,268.9,169.1z M268.9,380.8c0-27.5,0-55,0-82.5c0-3.2,0-6.4,0-9.6
		c0-1.6-1.9-2.7-2.9-1.6c-2.9,3.1-7,4.2-10.4,6.4c-6.9,4.5-14.2,8.5-21.4,12.4c-8.7,4.8-17.2,10.2-26,14.9c-3.1,1.6-6.4,3-9.2,5
		c-5.4,3.7-11.1,6.7-16.8,9.9c-6,3.3-11.9,6.7-17.7,10.3c-8,4.8-16.2,9.4-24.1,14.2c-8.5,5.2-17.4,9.9-26,14.9
		c-3.2,1.9-6.5,3.5-9.6,5.4c-2.3,1.4-2.2,1.8-0.4,3.5c6.8,6.6,13.4,13.2,18.7,21.1c3.9,5.7,7.5,11.6,11.3,17.3
		c4.2,6.5,8.8,12.4,15.7,16.6c6.1,3.7,12.7,5.9,19.1,8.4c7.6,3,15.5,5.4,22.6,9.4c3.5,2,7.2,3.7,10.5,6c5.5,3.9,11.3,7.2,17.2,10.3
		c2.3,1.2,5.1,1.5,7.4,2.6c2.5,1.3,5,0.9,7.5,1.1c2.7,0.2,5.3,0.7,8,1.1c0.5,0.1,1-0.3,1.5-0.4c1-0.2,2-0.6,3.1-0.7
		c5.9-0.4,11.7-0.8,17.6-1.2c3.3-0.2,4.3-1.3,4.3-4.6C268.9,441.1,268.9,410.9,268.9,380.8z M281.3,168.5c0,30.5,0,61,0,91.5
		c0,3.7,0.3,3.8,3.5,2c0.3-0.2,0.6-0.3,0.9-0.5c6.1-3.8,12.3-7.5,18.6-10.9c3.5-1.9,7.1-3.9,10.5-6c5.7-3.5,11.5-6.9,17.3-10.2
		c6.5-3.7,13.2-7.3,19.7-11.1c7-4,13.9-8.2,21-12.2c3-1.7,6.1-3.4,9.2-5.1c5.6-3.3,11.1-6.9,16.8-9.9c6-3.2,11.8-6.9,17.8-10.2
		c6.9-3.9,13.8-7.7,20.5-12c2.8-1.8,5.9-3.1,8.8-4.6c1.4-0.8,1.6-1.7,0.6-2.8c-0.3-0.3-0.5-0.5-0.8-0.8
		c-6.9-6.4-13.4-13.3-18.7-21.1c-3.9-5.7-7.1-11.9-11.1-17.4c-3.5-4.7-6.6-9.6-11.5-13.3c-6-4.6-12.6-7.7-19.6-10.1
		c-7.1-2.5-14.2-4.7-21-8c-3.8-1.8-7.4-4-11-6.1c-4.9-2.9-9.6-5.9-14.5-8.8c-5.1-3.1-10.5-5.6-16.2-7.1c-3.3-0.9-6.7-1.4-10-1.6
		c-3.6-0.2-7.2,0.1-10.9,0.9c-5.5,1.1-11.3,0.9-17,1.3c-0.4,0-0.8,0-1.1,0c-1.2-0.1-1.7,0.3-1.6,1.6c0.1,1.1,0,2.3,0,3.4
		C281.3,109,281.3,138.8,281.3,168.5z M281.3,380.2c0,29.6,0,59.1,0,88.7c0,1.3,0,2.6,0,4c-0.1,1.8,1.1,3,2.6,2.8
		c5.4-0.4,10.6,1,15.9,1.2c4.5,0.2,9.1-0.2,13.6,0.1c6.5,0.4,12.2-1.9,18-4.3c5.9-2.4,11-6.3,16.3-9.7c7.3-4.6,14.6-9.1,22.7-12
		c7.9-2.8,16.2-4.5,23.3-9.1c6.8-0.5,9.8-6.9,15.2-9.6c1.3-3.5,4.7-5.4,6.4-8.6c1.7-3.1,3.7-6,5.6-9c4.6-7.3,9-14.7,15.2-20.8
		c3.4-3.3,6.6-6.7,10-9.9c1.4-1.3,1-2.1-0.2-2.8c-3.2-1.8-6.5-3.4-9.7-5.2c-5.9-3.5-11.7-7.3-17.6-10.7c-3.8-2.2-8-3.7-11.6-6.1
		c-8-5.5-16.6-9.9-25-14.6c-6-3.3-11.8-6.9-17.7-10.3c-6.9-3.9-13.9-7.6-20.5-12c-3-2-6.5-3.5-9.6-5.3c-5.9-3.5-11.7-7.1-17.7-10.5
		c-3.6-2.1-7.7-3.6-11.1-5.9c-5.2-3.6-11.1-6.2-16.3-9.9c-1.8-1.3-4-2.2-6-3.2c-0.9-0.4-1.9-0.5-1.9,0.9c0,1.5,0,3,0,4.5
		C281.3,321.8,281.3,351,281.3,380.2z M268.9,508.9c0-6.4,0-12.8,0-19.2c0-0.5-0.7-1.4-1.1-1.4c-3.4-0.1-7-0.7-10.1,0.1
		c-2.6,0.7-5,1-7.5,0.8c-2.6-0.2-5,0.8-7.5,1.2c-3.3,0.6-6.5-1-9.7-1c-6.8,0-13.1-1.9-18.9-4.8c-7.7-3.8-14.8-8.7-22.3-13
		c-5.8-3.3-11.5-6.8-17.6-9.3c-6.3-2.5-12.9-4.2-19.2-6.8c-7.4-3-14.2-6.5-19.8-12.3c-1.4-1.5-3-2.9-4.4-4.4
		c-4.5-4.9-8.1-10.4-11.7-16.1c-4.8-7.6-9.1-15.5-15.9-21.7c-4-3.7-7.8-7.7-11.6-11.6c-1-1-1.6-0.8-2.8,0c-3.8,2.5-7.7,4.9-11.7,7.1
		c-5.6,3.2-11.4,6.2-17,9.3c-0.8,0.4-1.4,1.3-2,2c-0.2,0.2-0.2,0.9,0,1.2c1.3,2.1,2.6,4.2,4,6.3c3.1,4.6,6.6,9,9.8,13.5
		c4.2,5.7,8.5,11.3,13.4,16.4c6.7,7.1,13.8,14,20.8,20.8c3,3,6.1,6,9.6,8.3c7.3,4.8,14.1,10.3,21.4,15c7.6,4.8,15.5,9,23.3,13.5
		c3.4,2,7.6,2.8,10.9,4.9c4.9,3,10.3,4.5,15.5,6.3c10.4,3.6,20.7,7.8,31.8,9.2c6.2,2.9,13.1,3.1,19.6,4.4c5.5,1.1,11.3,0.9,17,1.3
		c0.6,0,1.3-0.2,1.7,0c3.3,2.2,6.9,0.6,10.3,1.1c1.6,0.2,1.8-0.6,1.8-1.9C268.8,521.7,268.9,515.3,268.9,508.9z M281.3,40.7
		c0,5.8,0,11.7,0,17.5c0,3.7,0,3.7,3.4,3.7c2.7,0,5.5,0.6,8-1.1c5,0.5,9.9-0.6,14.8-1.1c2.2-0.2,4.5-0.2,6.8,0
		c2.1,0.2,4.2,0.9,6.3,1c2.9,0.1,5.6,1,8.3,1.9c8.4,2.7,15.8,7.3,23.3,11.9c3.6,2.2,7.1,4.6,10.8,6.7c10.4,6,22.1,8.7,32.9,13.4
		c6.2,2.7,12.2,5.5,17.3,10.2c7.5,7,13.4,15.2,18.6,24s11.1,17,18.9,23.9c2.3,2,4.3,4.2,6.4,6.4c2.5,2.5,2.5,2.5,5.5,0.3
		c0.6-0.4,1.1-1,1.7-1.3c7-3.3,13.4-7.6,20.2-11.3c2.4-1.4,4.9-2.7,7.3-4.1c0.5-0.3,1.2-0.6,0.4-1.6c-3.7-4.8-6.7-10.1-10.2-15
		c-5.1-7.1-10.3-14-16.3-20.3c-10.8-11.3-21.4-22.8-34.1-32.1c-4.9-3.6-10-7-14.8-10.6c-3.8-2.9-8-5.2-12.2-7.4
		c-3.6-1.9-7-4.1-10.5-6.1c-6.3-3.8-13.1-6.5-19.9-9.4c-4.5-1.9-9-3.6-13.6-5.3c-9.1-3.3-18.1-6.7-27.8-7.9c-3.5-2.4-7.8-2-11.7-3.2
		c-4.1-1.3-8.7-1-13-1.3c-0.7-0.1-1.8,0.3-2.2-0.1c-2-1.7-4.2-0.8-6.4-1.1c-2.1-0.3-4.2-0.9-6.3-1.1c-3.2-0.2-6.4,0.2-9.6-0.1
		c-2.3-0.2-2.4,0.9-2.3,2.6C281.3,28.6,281.3,34.6,281.3,40.7z M268.9,41.2c0-6.4,0-12.8,0-19.2c0-1.4-0.3-2.1-1.9-1.9
		c-3.6,0.3-7.2,0-10.9,0.9c-4.1,1-8.6,0.3-13.1,1c-3.3,0.6-6.8,1.1-10.2,1.4c-3.6,0.3-7,1.7-10.4,2.1c-7.3,0.8-14.2,3.2-21.1,5.1
		c-11.4,3.2-22.4,7.8-33.2,12.7c-6.8,3.1-13.5,6.5-20,10.5c-9.1,5.6-18.2,11.1-26.6,17.7c-7.4,5.8-14.7,11.5-21.3,18.1
		c-0.9,0.9-1.7,2.3-2.9,2.7c-3.1,1-4.9,3.6-6.5,5.9c-1.8,2.6-4.1,4.7-6.2,7c-2.9,3.3-6.2,6.4-8.7,10c-1.5,2.2-3.4,3.8-4.9,5.9
		c-3.8,5.5-7.5,11.2-11.2,16.8c-0.8,1.3-1.8,2.5-2.2,4c-0.1,0.4,2.1,1.1,2.9,2c1.5,1.4,3.3,2,5,2.9c3.8,1.9,7.4,4.1,11,6.3
		c4.2,2.6,8.4,5,12.8,7.3c1.2,0.6,1.5,0.8,2.5-0.2c4.3-4.5,8.9-8.7,13.1-13.3c2.4-2.6,4.5-5.6,6.5-8.6c4-5.8,8-11.7,11.9-17.7
		c2.5-3.8,5.8-7,8.2-10.8c3-4.6,7.4-7.4,11.7-10.1c9.5-6,20.3-9.3,30.8-12.9c7.4-2.6,14-6.4,20.6-10.4c3.8-2.3,7.5-4.6,11.3-6.8
		c3.9-2.2,8.1-4,12.3-5.8c6.6-2.9,13.3-4.1,20.3-4.2c6.1-0.1,12.1,0.7,18.2,1c0.2,0,0.4-0.1,0.6,0c2.9,1.9,6.1,0.8,9.1,1.1
		c1.6,0.2,2.3-0.2,2.3-2.1C268.8,53.6,268.9,47.4,268.9,41.2z M281.3,509c0,6.2,0.1,12.4-0.1,18.6c-0.1,2,0.5,2.8,2.5,2.4
		c2.8-0.4,5.7-0.9,8.6-1.1c3-0.2,6,0,9,0c0.2,0,0.5,0.1,0.6,0c1.7-1.7,3.8-1.3,5.7-1c2.3,0.3,4.2-1,6.3-1.2c2.7-0.3,5.3-0.7,8-1.1
		c2.7-0.4,5.4-0.5,8-1.2c3.6-0.9,7-2.3,10.6-3.1s7.2-1.9,10.6-3c12.1-3.8,24-8.4,35.4-14.2c9.6-4.8,19-9.9,27.9-15.8
		c5.7-3.8,11.1-7.8,16.5-12c6.5-5.1,12.9-10.2,18.8-15.8c5.6-5.4,11.3-10.7,16.2-16.9c3.9-4.8,8.3-9.2,11.9-14.3
		c4-5.7,8.6-10.9,11.7-17.2c2.3-4.8,2.6-4.8-1.9-7.4c-0.7-0.4-1.6-0.7-2.3-1.1c-3.1-1.6-6.3-3.1-9.2-5c-5-3.2-10.2-6.2-15.5-8.8
		c-1.4-0.7-2-1.2-3.2,0.1c-5.3,5.7-10.7,11.3-15.9,17.2c-1.6,1.8-2.5,4.3-4.1,6.2c-2.5,2.9-3.8,6.4-6.1,9.3
		c-3.5,4.5-5.9,9.8-9.7,14.1c-3.6,4-7.1,8-11.6,11.1c-4.4,3-8.9,5.6-13.7,7.8c-7,3.1-14.4,5.4-21.6,7.8c-6.4,2.2-12.1,5.7-17.7,9.1
		c-3.9,2.4-8,4.5-11.8,7c-4,2.5-8.1,5-12.5,6.7c-4.8,1.8-9.6,3.7-15,3.5c-1.1,0-2.4-0.2-3.2,0.3c-2.3,1.5-5,1.3-7,0.6
		c-3.3-1.2-6.5-0.7-9.8-0.9c-0.9-0.1-2.1,0.3-2.8-0.1c-3.9-2.1-8-0.6-12-1.1c-1.2-0.1-1.6,0.4-1.6,1.6
		C281.3,496.2,281.3,502.6,281.3,509z M530.1,275.1c0-4.7,0-9.4,0-14.1c0-0.9,0.4-2.2-0.1-2.8c-1.9-2.4-0.7-5-1.1-7.5
		c-0.4-2.7-0.8-5.3-1.1-8c-0.4-3.8-0.2-7.8-1.3-11.4c-1.5-5-1.9-10.1-3.2-15c-0.9-3.4-1.7-6.9-2.5-10.3c-0.8-3.5-2.5-6.9-3.3-10.5
		c-0.8-3.5-2.4-6.9-3.7-10.3c-1.7-4.4-3.3-8.8-5.3-13.1c-0.8-1.8-1.6-3.5-2.3-5.3c-1.6-4.2-3.9-8.2-6-12.2c-0.6-1.1-1.7-2.1-3.1-0.6
		c-0.4,0.5-1.3,0.5-1.9,0.8c-8.7,4.5-16.6,10.5-25.7,14.4c-0.3,0.1-0.5,0.5-0.8,0.8c-0.8,0.7-1.2,1.3-0.4,2.3c0.8,1,1.4,2.1,2,3.1
		c1.8,3,3.2,6.1,4.5,9.4c2.5,6.5,2.9,13.5,4.3,20.2c0.6,2.8,0.2,5.7,1,8.6c0.8,2.9,0.5,6,1.1,9.1c0.9,4.7,2.2,9.2,3.5,13.8
		c1.1,4.1,3.1,7.8,4.3,11.8c2.5,8.6,5.4,17.1,4.9,26.2c-0.2,3.8,0,7.6-0.9,11.4c-0.8,3.2-1.4,6.6-2.5,9.7c-1.4,4.3-3.1,8.5-4.5,12.8
		c-1.9,6.2-4.9,12.2-4.6,19c-1.8,1.8-1.1,4.2-1.1,6.3c0,2.4-1.4,4.4-1.3,6.9c0.1,4.2-0.6,8.3-1,12.5c0,0.2,0,0.4-0.1,0.5
		c-2.2,3.5-1.8,7.8-3.5,11.5c-1.7,3.6-3.2,7.4-5.5,10.7c-0.2,0.3-0.4,0.6-0.6,0.9c-0.8,1.1-0.8,1.5,0.7,2.3
		c6,3.6,12.4,6.7,18.2,10.7c3.2,2.2,6.7,3.7,10.1,5.7c0.9,0.6,1.6,0.8,2.2-0.3c1.9-3.7,3.8-7.4,5.7-11.2c1.9-3.7,4.3-7.3,5.5-11.3
		c2.1-7.4,5.6-14.3,7.5-21.8c1.4-5.4,3.1-10.8,4.6-16.1c1.6-5.6,2.4-11.4,3.7-17.1c1.2-5.4,1.8-11.1,2.2-16.6
		c0.6-8.5,2.1-17,1.3-25.5C530,275.9,530.1,275.5,530.1,275.1z M20.1,276.6c0.8,6.1-0.9,13.9,1,21.7c1.1,4.7,0.9,9.8,1.3,14.7
		c0,0.4-0.1,0.8,0,1.1c1.4,3.3,1.6,6.9,2.3,10.4c0.7,3.7,1.1,7.4,2.3,10.9c1.6,4.8,2.6,9.8,4.4,14.6c1.9,5.2,3.6,10.5,5.5,15.8
		c1.7,4.8,4.1,9.2,5.8,14c1.8,5,4.3,9.5,6.8,14.1c1.7,3.1,1.6,3,4.4,1.3c2.1-1.3,4.5-1.9,6.5-3.3c6.7-4.6,13.7-8.5,21-12.2
		c1.2-0.6,1.2-1.2,0.5-2.1c-0.6-0.9-1.3-1.7-1.9-2.6c-5.8-9.8-8.4-20.5-9.1-31.8c0-0.8,0.3-1.8-0.1-2.2c-1.8-2.1-0.8-4.6-1.1-6.9
		c-0.4-2.5-0.7-5-1.1-7.4c-0.5-2.6-0.8-5.3-1.6-7.8c-2.7-9-6.7-17.6-8.9-26.9c-0.8-3.5-2-6.8-2.1-10.5c0-2,0.4-3.9-0.5-6
		c-0.6-1.5,0.5-3.7,0.5-5.5c-0.2-5.7,1.8-10.8,3.2-16.2c2-8,6.1-15.3,7.7-23.4c1-5.2,2.9-10.3,2.8-15.8c0-1.1-0.4-2.5,0.1-3.3
		c1.3-2.1,0.9-4.2,1.1-6.4c0.2-2.1,0.9-4.2,1.1-6.3c0.5-5.5,2.2-10.7,4-15.9c1-2.9,3.3-5,4-8c0.3-1.3,2.3-2.8,2-3.5
		c-0.6-1.3-2.3-2-3.7-2.9c-0.7-0.5-1.5-0.8-2.3-1.2c-4.6-2.3-9-4.7-13.3-7.5c-3-2-6.6-3.2-9.6-5.3c-2-1.4-2.8-0.3-3.5,0.9
		c-1.3,2.1-2.1,4.4-3.3,6.5c-4,7.5-7.5,15.4-10.3,23.4c-2.7,7.7-5.4,15.5-7.4,23.5c-1.7,7-3.5,14-5.1,21c-1.1,4.9-1.6,9.9-2.3,14.9
		c-0.9,6.4-1,12.8-1.2,19.3C19.9,267.4,20.1,271.2,20.1,276.6z"/>
	<path class="st0" d="M218.7,276.5c-0.6,1.2-1.1,3.6-2.5,4.5c-1.5,1-3.8,2.3-6,0.9c-0.2-0.1-0.2-0.3-0.4-0.4c-3-1.5-8.3-6.7-9.9-9.9
		c-1.6-3.1-1-6.3,1.2-8.1c1.2-0.9,3.1,0.4,3.9-1.5c1.3,0.5,2.8,0.8,3.8,1.6c3,2.8,6,5.7,8.7,8.7
		C218.2,273.2,218.2,274.7,218.7,276.5z"/>
	<path class="st0" d="M194.2,293.3c-0.1,0.2-0.6,1.4-1.4,2.3c-2.8,3.4-6.9,4.9-10.5,7.3c-1.8,1.2-3.3,1.3-5,0.4
		c-1.7-0.8-3.8-1.4-3.5-4.1c0.1-0.9-1.1-2.1-0.8-2.8c0.7-1.6,1.8-3.2,3.1-4.3c2.9-2.4,6.3-3.8,9.4-5.9
		C188.8,283.9,194.3,288,194.2,293.3z"/>
	<path class="st0" d="M100.5,251.8c1.7-0.4,3.2,0.3,4.5,1.8c2,2.2,4.2,4.2,6.3,6.4c2.9,3.1,3.4,7.3,1.2,9.6c-2,2-7.2,2-9.9-0.3
		c-2.3-1.9-4.4-4.1-6.3-6.3c-2.4-2.8-2.1-7.7-0.1-9.9C97.4,251.7,98.8,251.9,100.5,251.8z"/>
	<path class="st0" d="M173.9,257.5c0,2.1,0.1,4.2,0,6.2c-0.2,3.1-2.7,5.1-6.1,5.1c-3.5,0-6.1-1.9-6.2-5c-0.2-3.8-0.1-7.5,0-11.3
		c0.1-2.9,2.8-5.8,5.6-6.3c2.7-0.5,6.7,2.8,6.8,5.7C173.9,253.7,173.9,255.6,173.9,257.5z"/>
	<path class="st0" d="M94.7,206.4c-1-2.6,1-4.6,2.8-5.1c2.2-0.6,5.1-1.3,7.2,1.3c2.2,2.6,4.8,4.8,7.1,7.2c0.9,0.9,2.2,1.5,2,3.1
		c-0.2,1.3,0.1,2.7-0.5,3.7c-1.5,2.7-4.9,4.2-7.5,3.6c-0.3-0.1-0.7-0.2-0.9-0.4c-2.7-2.2-5.4-4.4-7.9-6.8
		C95.4,211.3,94.4,209.2,94.7,206.4z"/>
	<path class="st0" d="M100.5,310.6c-5.9,0.8-6.9-5-5.3-8.8c0.7-1.8,2.2-3.3,3.6-4.7c1.8-1.8,4-3.2,5.9-4.9c1.7-1.5,3.9-1.2,5.3-0.6
		c1.7,0.7,3.3,2.7,3.9,4.4c0.7,2,0.4,4.2-1.8,6c-2.5,2-4.7,4.4-6.8,6.7C103.8,310.3,102.4,311.2,100.5,310.6z"/>
	<path class="st0" d="M130.9,323.3c0.7,2.6-1.1,4.1-3.2,5.4c-1.8,1.2-3.7,2.1-5.3,3.5c-2.4,2.2-5.2,2.3-8.1,2.1
		c-1.7-0.1-3.5-2.3-3.8-4c-0.7-4,1.2-6.5,4.6-8.4c2.8-1.5,5.3-3.5,8-5.1c1.9-1.1,3.6,0.6,5.3,1.2
		C130.4,318.6,130.9,320.4,130.9,323.3z"/>
	<path class="st0" d="M151.2,234.2c0.5,1.8-0.6,3.1-2,4.4c-2.2,2-4.3,4.2-6.4,6.3c-1.4,1.5-2.8,3-5.2,2.3c-1.5-0.5-3.3-0.7-4.3-1.7
		c-2.4-2.3-1.7-9,1.4-10.5c2.5-1.2,4-3.2,5.7-5c1.6-1.6,3.1-2.3,5.3-2.2C149.8,228.3,151.3,229.8,151.2,234.2z"/>
	<path class="st0" d="M152.4,290.2c0,3.3-1.4,5.6-4.7,6.3c-1.7,0.4-3.9,0.1-5.5-0.7c-1.8-0.9-3.5-0.8-5.2-1
		c-4.5-0.6-7.3-4.9-6.1-9.2c0.5-1.8,4.7-4.1,6.8-3.8c3,0.5,5.8,1.6,8.9,1.8C150,283.8,152.4,286.8,152.4,290.2z"/>
	<path class="st0" d="M436.3,284.7c-0.7-2.8,0.9-4.5,3.1-5.7c1-0.5,2.3-1,3.3-0.8c1.5,0.3,3.1,1,4.2,2c2.3,1.9,4.5,4.1,6.4,6.4
		c1.1,1.3,1.9,3.1,2.1,4.7c0.6,4.7-3,7.8-7.6,6.9c-0.8-0.2-1.6-0.8-2.2-1.4c-2.6-2.5-5-5.1-7.6-7.5C436.5,288,436,286.6,436.3,284.7
		z"/>
	<path class="st0" d="M376.3,253c0.5,2.2-0.4,3.8-3.1,5c-3.2,1.4-5.9,3.8-9,5.4c-4.1,2.2-7.8,0-8.2-4.6c-0.2-3.1,0.1-5.7,3.7-7
		c1.9-0.7,3.4-2.6,5.2-3.7c1.5-0.8,2.8-2,4.8-2C374.5,246.2,376.3,247.8,376.3,253z"/>
	<path class="st0" d="M455.4,245.4c0.7,1.9-0.5,3.2-1.9,4.5c-1.9,1.8-3.7,3.7-5.6,5.6c-0.7,0.7-1.3,1.4-2,2c-2.1,1.5-5,1.6-6.5,0.4
		c-3.2-2.6-4-5-2.7-8.1c0.3-0.8,0.6-1.7,1.2-2.3c2.5-2.6,4.8-5.3,7.6-7.5c1.4-1.1,3.2-2.6,5.8-1
		C453.8,240.5,455.9,241.7,455.4,245.4z"/>
	<path class="st0" d="M439.6,221.9c0.8,2.2-0.9,3.6-2.5,4.7c-2.8,2-5.9,3.8-8.9,5.6c-3.6,2.1-10.1-1-9.8-5c0.1-1.7,0.4-4.4,2.5-5.6
		c3.4-2,6.9-4,10.4-5.9c3.6-1.9,8.2,0.8,8.4,4.8C439.6,220.8,439.6,221.1,439.6,221.9z"/>
	<path class="st0" d="M344.5,286.9c-1.7,0.4-3.2-0.3-4.6-1.8c-2.1-2.4-4.6-4.5-6.7-6.8c-2.9-3.3-2.4-7.8,1.4-10c1.8-1,4-1.1,6.1,0.4
		c2.7,1.8,8.1,6.7,9.6,9.5C352.5,282.3,349.6,286.9,344.5,286.9z"/>
	<path class="st0" d="M418.1,309.4c-0.4,0.7-0.9,2.5-2,3.8c-2.1,2.4-4.3,4.8-6.8,6.7c-2,1.6-4.1,2.8-7.3,1.5
		c-2.7-1.1-3.3-3.2-3.7-5.2c-0.3-1.4,0.5-3.4,1.5-4.5c2.4-2.9,5.2-5.4,7.9-8c1.7-1.7,3.9-0.7,5.9-0.7
		C415.2,302.8,418.1,306.7,418.1,309.4z"/>
	<path class="st0" d="M412.4,267.8c-3.1-1.3-6.5-0.9-9.8-2.1c-1.6-0.6-3.1-1.1-4.1-2.3c-2.4-2.8-2.5-5-0.6-7.7
		c1.4-1.9,5-3.3,7.3-2.4c2.5,1,5,1.6,7.6,2c2.1,0.3,3.7,1.3,5.1,2.7c1.7,1.8,1.9,5.1,0.1,6.9C416.6,266.4,415.3,268.6,412.4,267.8z"
		/>
	<path class="st0" d="M443.6,329.9c0.3,0.2,1.5,0.8,2.7,1.6c1.4,1,2.7,2.3,4.2,3.3c3.2,2.2,5.6,5.2,5,9.6c-0.3,2.3-1.9,3.8-3.8,4.4
		c-2,0.7-4.2,1.1-6.1-1c-2.4-2.6-4.9-5.2-7.5-7.5c-2.4-2.1-2.3-4.4-1.3-6.9C438,330,438.4,329.8,443.6,329.9z"/>
	<path class="st0" d="M376.3,291.7c0-1.9,0-3.8,0-5.6c0.1-2.5,3-5.7,5.4-5.9c0.5,0,1,0.4,1.4,0.6c3.7,1.8,6.4,4.1,5.7,8.8
		c-0.3,1.8-0.2,3.8,0,5.6c0.3,2.7-0.6,4.6-2.7,6.3c-2.4,2-6.9,1.8-8.8-0.6c-0.5-0.6-0.9-1.6-0.9-2.4
		C376.2,296.2,376.3,294,376.3,291.7z"/>
	<path class="st0" d="M155.8,139c0-3.3,1.8-6.1,5-6.8c1-0.2,2.3,0.6,3.4,0.9c3.1,0.8,6.2,1.4,9.2,2.3c2.5,0.7,5.3,3.8,4.9,5.7
		c-0.4,1.8-1.2,3.9-2.5,5.1c-1.5,1.4-3.7,2.2-6,1.5c-2-0.6-3.9-1.9-5.9-2c-2.2-0.1-3.6-1.4-5.4-2.1
		C156.1,142.5,155.6,141.2,155.8,139z"/>
	<path class="st0" d="M236.6,133.1c4,1.1,8.1,2.1,12,3.5c2.2,0.8,3.8,4,3.2,6.2c-0.7,2.2-1,4.7-4.5,5.2c-1.8,0.3-3.2,0.5-4.7-0.2
		c-2.4-1.1-5.1-1.7-7.6-2c-3.6-0.5-4.2-3.2-5.6-5.3c-1.2-1.7,0.5-3.5,1.4-4.8C232.1,133.9,234.2,132.9,236.6,133.1z"/>
	<path class="st0" d="M253,91.3c-2.6,3.8-1.3,9.8-5.9,13.4c-3,2.3-7.2,1.1-8.8-2.4c-1.3-3,0.1-5.7,0.5-8.5c0.3-1.9,1.2-3.6,1.8-5.4
		c1.1-3.2,4.3-5.6,6.9-5C250.8,84.1,253.4,87.5,253,91.3z"/>
	<path class="st0" d="M207.9,197.6c3.1-0.4,5.3,1.8,7.8,2.9c1.1,0.5,2.1,1.3,3.1,2c1.2,0.8,3.1,1.4,3.4,2.4c0.5,1.9,0.4,4,0,6
		c-0.6,2.7-4.7,4.6-7.2,3.5c-3.8-1.7-7.5-3.6-11.2-5.5c-1.6-0.9-3.1-4.7-2.7-6.1C202.1,199.5,204.7,197.6,207.9,197.6z"/>
	<path class="st0" d="M199.6,130.9c-4.4,0-6.4-3-5.5-7.7c0.3-1.6,0.3-3.1,1-4.7c0.6-1.3,0.6-3,1.2-4.6c1.9-5.2,6.6-6.4,10.6-2.6
		c1.9,1.9,2.5,3.5,1.3,6.3c-1.1,2.7-1.5,5.7-2.7,8.5C203.8,130.6,203.7,130.9,199.6,130.9z"/>
	<path class="st0" d="M188,161.9c0.5-3.7,1.7-5.4,4.7-6.2c2.7-0.7,6.1,0.4,7.1,3c1.6,4.5,4,8.8,3.5,13.8c-0.2,2.5-3.2,5.7-5.6,5.8
		c-0.5,0-0.9-0.4-1.4-0.7c-2.9-1.6-5.5-3.1-5.6-7.2C190.6,167.5,189,164.7,188,161.9z"/>
	<path class="st0" d="M242.8,227c-0.7,0-1.6,0.2-2.2,0c-1.1-0.4-2.6-0.8-3.2-1.6c-0.8-1.3-0.9-3-1.3-4.5c2.3-1.3,0-4.5,2.3-5.8
		c-0.5-2.1,0.6-3.9,1.1-5.7c1.4-4.5,7-5.8,10-2.2c1.6,1.9,3.9,4.1,1.3,6.9c0.3,3.2-1.3,5.8-2.3,8.6C247.3,226.3,246.4,227,242.8,227
		z"/>
	<path class="st0" d="M246.4,171c0.7,3.2-1,4.6-3.6,5.8c-3.5,1.6-6.8,3.6-10.1,5.5c-1,0.6-1.4,0.4-2.4,0c-4.1-2.1-5.4-4-4.3-8.2
		c0.5-1.8,2.1-3.6,3.7-4.5c2.5-1.6,5.4-2.4,7.8-4.4c1.8-1.5,7.2,0.1,8.3,2.1C246.3,168.3,246.2,169.7,246.4,171z"/>
	<path class="st0" d="M158.3,175c-4.3,0.1-7.1-2.8-10.5-4.1c-0.6-0.2-1-1.4-1.6-1.5c-1.5-0.2-2.6-1-2.8-2.2
		c-0.3-1.8-0.4-3.9,0.2-5.5c1.5-3.6,4.8-4.4,8.5-2.7c4,1.9,8.2,3.3,11.2,7c1.8,2.2,1.7,2,0.4,5.1C162.6,174,160.9,175.3,158.3,175z"
		/>
	<path class="st0" d="M216.8,361.7c0.9,3.1-1.7,4.5-3.6,6.1c-1.7,1.5-3.7,0.3-5.5-0.6c-3-1.7-6.1-3.3-9.1-5.2
		c-2.5-1.7-3.5-6-2.2-8.8c1.1-2.3,5.3-3.7,7.9-2.4c3.4,1.7,6.8,3.5,10,5.5C216.5,357.6,216.8,358.7,216.8,361.7z"/>
	<path class="st0" d="M250.8,329c0.1,3.8-2.5,6.9-7,7.6c-2.3,0.3-4.4,1.3-6.6,1.9c-2.1,0.5-6.7-0.6-7.7-2.2
		c-2.4-3.6-0.5-8.2,3.7-9.8c3.4-1.3,7-2,10.5-3.3C246.5,322.1,250.7,325.8,250.8,329z"/>
	<path class="st0" d="M211.2,401c-0.4-1.7,0.3-3.2,1.8-4.6c2.5-2.3,4.8-4.8,7.2-7.1c2-1.9,5.1-2.4,6.9-1.1c2.6,2,4.1,5.4,3.3,7.6
		c-0.1,0.3-0.4,0.6-0.7,0.9c-2.5,2.9-4.9,6-7.6,8.7c-3.5,3.5-6.1,3.3-9.7-0.1C211.1,404.1,211.2,402.7,211.2,401z"/>
	<path class="st0" d="M240.6,362.7c0-1.5,0-3,0-4.5c0-3.4,0.4-4,3.5-5.2c2.7-1.1,5.2-0.6,6.9,1.5c1.2,1.5,2.2,3.2,2.1,5.4
		c-0.1,2.6-0.2,5.3,0,7.9c0.3,2.7-0.8,4.6-2.8,6.2c-1.9,1.5-5.1,1.6-6.9,0c-2-1.6-3.2-3.4-2.8-6.2
		C240.8,366.1,240.6,364.4,240.6,362.7z"/>
	<path class="st0" d="M183.3,376.2c0.1,3.1-0.7,5.4-3.9,6.4c-2.2,0.7-5.5-0.7-6.9-2.7c-2.7-3.7-2.8-8.2-4.2-12.3
		c-1.2-3.7,3.5-8.3,7.3-7.3c2.5,0.6,4.2,2.4,5,4.6C181.8,368.6,182.4,372.5,183.3,376.2z"/>
	<path class="st0" d="M210.7,424.9c3.2,0.1,5.1,1.5,6.1,4.6c1.1,3.5,2.2,7,3.2,10.5c0.4,1.2-1.3,5.6-2.5,6.1c-2,1-3.9,2-6.4,0.4
		c-2.3-1.5-3.7-3.4-4.5-5.7c-0.5-1.5-0.4-3.1-1.1-4.6c-0.6-1.2-0.5-2.6-1.1-4.1C203.3,429,207.2,424.8,210.7,424.9z"/>
	<path class="st0" d="M188.6,414.7c0.4,3.5-1.6,6.5-6.1,6.9c-2.2,0.2-4.4,1.1-6.5,1.9c-2.8,1-5.7,0.5-7.5-1.4c-2-2-1.4-5.2-1.2-7.8
		c0.1-0.7,1.6-1.2,2.5-1.7c3-1.6,10.4-3.4,13.2-3.4C187,409.1,188.6,410.7,188.6,414.7z"/>
	<path class="st0" d="M236.1,433.4c0-1.7,0.3-3.4-0.1-5.1c-0.5-2.5,0.7-4.1,2.5-5.2c1.7-1,3.7-0.5,5.7,0.1c3.7,1.1,3.6,4.3,4.1,6.7
		c0.7,3.2,0.3,6.7,0.1,10.1c-0.1,2.5-2.3,4.1-4,4.9c-1.4,0.7-3.8,0.9-5.7-0.9c-1.8-1.8-3.2-3.5-2.8-6.2
		C236.2,436.4,236.1,434.9,236.1,433.4z"/>
	<path class="st0" d="M144.5,390.4c0.5,2.2-0.7,3.6-3.2,4.4c-4,1.2-7.8,2.8-11.9,3.7c-1.3,0.3-3.2-0.9-4.6-1.8
		c-1.2-0.8-1.9-1.9-1.9-3.7c0-4.5,1.8-6.8,6.5-7.7c2.3-0.4,4.5-0.7,6.8-1.3C142,382.4,144.5,384.1,144.5,390.4z"/>
	<path class="st0" d="M339.4,181.7c1.6-0.3,2.8,0.6,4.2,1.7c2.6,2,5.8,3.2,8.4,5.3c3.6,2.9,2.3,8.6-2.1,10c-0.9,0.3-1.9,0.9-2.7,0.7
		c-1.8-0.4-3.9-0.9-5.3-2c-1.7-1.3-3.4-2.4-5.4-3.3c-3-1.3-3.7-4.5-4.1-7.1C331.9,184.3,335.9,181.7,339.4,181.7z"/>
	<path class="st0" d="M309.6,186.2c0,1.7-0.1,3.4,0,5.1c0.1,1.6-0.4,2.7-1.5,3.9c-1.7,1.8-3.5,2.9-5.8,2.3c-2.5-0.6-5-3.6-5.1-6.2
		c-0.1-4.1-0.1-8.3,0-12.4c0-1.4,2.1-3.8,3.4-3.9c1.7-0.1,3.4-0.2,5.1,0c1.5,0.2,3.9,3.2,3.9,5C309.6,182.1,309.6,184.1,309.6,186.2
		z"/>
	<path class="st0" d="M371.9,167c3.8-0.1,6.8,2.5,7.7,7c0.6,2.8,0.9,5.5,2.1,8.2c0.5,1.1-1.4,5.7-2.5,6.1c-2,0.9-3.9,2.1-6.4,0.3
		c-2.2-1.5-3.9-3.4-4.4-5.8c-0.6-3-1.3-5.8-2.3-8.7C365.2,171.3,368.8,167.1,371.9,167z"/>
	<path class="st0" d="M331.4,142.2c4.6,0,7.9,3.4,7.6,7.3c0,0.5-0.1,1.2-0.4,1.5c-2.9,3.3-5.7,6.8-8.8,9.8c-1.5,1.5-4.1,2.7-5.9,1.6
		c-2.2-1.4-4.6-3.1-4.2-6.6c0.2-2,0.5-3.5,2-4.9c2.6-2.4,5-5,7.6-7.5C330,142.7,331,142.4,331.4,142.2z"/>
	<path class="st0" d="M383.1,132.4c0.5,2.7-1.3,4-3.2,5.2c-1.3,0.9-10.6,3.4-12,3.4c-3.6,0.1-5.8-1.7-7.3-5.1
		c-0.7-1.6,1.2-5.1,3.1-6.3c2-1.1,11-3.4,13.2-3.4C380.9,126.4,383,128.5,383.1,132.4z"/>
	<path class="st0" d="M314.1,116.2c0,1.7-0.1,3.4,0,5.1c0.2,1.7-0.6,2.7-1.6,3.9c-1.6,1.9-3.5,2.9-5.8,2.1c-2.6-0.9-4.7-2.8-5-5.7
		c-0.3-4.1-0.3-8.3,0-12.4c0.1-1.6,1.6-4,2.8-4.2c2.1-0.4,4.7-1.2,6.8,0.9c1.8,1.8,3.2,3.5,2.7,6.3
		C313.9,113.6,314.1,114.9,314.1,116.2z"/>
	<path class="st0" d="M329.9,108.4c-0.4-3.1,2.4-4,3.9-5.7c0.9-1,4.6,0.3,6.1,1.2c2.3,1.4,2.7,4,3.3,6c0.9,2.8,1.8,5.8,2,8.7
		c0.1,1.4,0.1,4.1-1.9,4.9c-1.7,0.7-3.2,2.6-5.8,0.9c-2.1-1.3-3.8-2.6-4.6-4.9c-1.1-3.1-2-6.3-2.9-9.5
		C329.8,109.6,329.9,109,329.9,108.4z"/>
	<path class="st0" d="M427.2,157.4c0,3.6-2.9,6.7-7.4,7.3c-2.6,0.4-5.1,1.2-7.6,2c-2.1,0.6-6.1-1.5-6.4-3.8
		c-0.2-1.4-2.2-2.3-0.4-4.3c1.4-1.6,2.2-3.3,4.5-4.1c3.3-1.3,6.7-1.7,10-3.1C422.8,150.1,427.2,153.9,427.2,157.4z"/>
	<path class="st0" d="M307.1,226.1c-2.4-0.3-4-0.1-5.2-0.8c-3.1-1.7-3.6-7.2-0.9-9.5c1.2-1,2.7-2.3,4-2.3c4,0,7.3-3.3,11.4-2.4
		c3.1,0.7,4.4,2.3,4.4,5.7c0,5.1-0.1,5.3-5,6.8C312.7,224.5,309.5,225.4,307.1,226.1z"/>
	<path class="st0" d="M406.8,385.3c-0.1,4.6-4.8,7.8-8,6.1c-3.5-1.9-7.4-3.2-10.6-5.8c-1.9-1.6-3.4-3.2-2.9-5.5c0.5-2,1-4.2,3.7-5.3
		c1.9-0.8,3-1.1,4.8,0.1c2.8,1.8,5.7,3.4,8.8,4.4C406.4,380.6,406.1,383.6,406.8,385.3z"/>
	<path class="st0" d="M361.6,386.7c0,5.1-3,8-7,7.6c-2.9-0.2-4.5-2.4-5.4-4.8c-1.3-3.4-1.6-7.1-3.2-10.5c-0.5-1.1,0.4-3,1-4.5
		c0.3-0.7,1.3-1.3,2-1.7c3-1.7,4.5-1.4,6.8,0.3c2.8,2.1,3.2,5.5,4.6,8.3C361.3,383.3,361.4,385.6,361.6,386.7z"/>
	<path class="st0" d="M324.3,374.4c0.9,2.1-0.7,3.6-2.4,4.7c-3.2,2-6.6,3.9-10,5.5c-3.8,1.8-8.8-1.1-9-5.3c-0.2-2.8,1.7-4.8,3.7-6.2
		c2.7-1.9,5.9-3,8.6-4.9c2.4-1.8,4.4-0.8,6.4,0.2C323.5,369.5,324.3,371.3,324.3,374.4z"/>
	<path class="st0" d="M313.3,329.3c-0.9,3.6-1.5,7.3-2.7,10.7c-0.8,2.1-2.4,4-5,4.5c-4.3,0.9-8.9-3.7-7.2-8.4
		c1.2-3.3,1.7-6.7,3.2-9.9c1.2-2.7,3.5-4.6,6.4-4.3c2.8,0.3,4.9,2.6,5,5.6c0,0.6,0,1.1,0,1.7C313.1,329.3,313.2,329.3,313.3,329.3z"
		/>
	<path class="st0" d="M356.3,425.3c-0.9,3.6-1.5,7.3-2.7,10.8c-0.8,2.2-2.4,4-5,4.6c-4.3,1-9-4.1-7-8.9c1-2.2,1.3-4.7,1.9-7.1
		c0.5-2.1,1-4.4,3.1-5.4c1.7-0.8,3.8-2.3,5.6-0.9C354.2,420,356.9,421.7,356.3,425.3z"/>
	<path class="st0" d="M347.9,346c0.3,2.4,0.4,4.5-1.7,5.3c-2,0.7-3.9,2.3-6.5,0.4c-3-2.1-6.5-3.3-9.8-4.8c-1.2-0.6-1.6-1.6-2.4-2.6
		c-1.5-2.1-0.9-3.6,0.1-5.4c1.2-2,2.4-3.4,5.1-3.5c3.5-0.1,6.1,1.8,8.8,3.3c0.9,0.5,1.8,1.2,2.7,1.6
		C347.1,341.4,349.2,343,347.9,346z"/>
	<path class="st0" d="M386.8,416.9c-3.4-0.8-7.4-1.3-11.2-2.6c-2.7-0.9-4.5-5.5-3.8-7.9c1-2.9,5.4-5,8.7-4c3.1,1,6.2,2.3,9.4,3.1
		c1.3,0.3,2.7,0.5,3.2,1.7c0.7,1.6,1.7,3.1,1.4,5c-0.5,2.5-3,4.6-5.9,4.7C388.1,417,387.7,416.9,386.8,416.9z"/>
	<path class="st0" d="M311.8,451.6c-0.3,3-1.3,7-3.1,10.9c-1.3,2.7-4,4.6-6,4.2c-2.6-0.5-5.4-3.5-5.5-6.3c0-1.4-0.2-2.7,0.6-4.2
		c1-1.7,0.9-4.1,1.6-6c2-5.7,4.2-7.8,10.3-4.9C311.9,446.3,311.8,446.4,311.8,451.6z"/>
	<path class="st0" d="M319.7,410.8c0.8,2.2-1,3.7-2.7,4.7c-1.4,0.9-3.1,2.1-5.2,0.5c-1-0.8-3-0.5-4.6-1.1c-1.4-0.5-3.1-0.9-4.6-1.1
		c-2.4-0.4-4-1.7-4.3-3.6c-0.3-2.2-1-4.7,1.4-6.7c2.3-2.1,3.9-2.9,7.2-1.4c2.4,1.1,5.4,1.4,8,2.4
		C319.4,406.1,319.8,406.4,319.7,410.8z"/>
</g>
</svg>
