<?xml version="1.0" encoding="utf-8"?>
<!-- Generator: Adobe Illustrator 22.1.0, SVG Export Plug-In . SVG Version: 6.00 Build 0)  -->
<svg version="1.1" id="Camada_1" xmlns="http://www.w3.org/2000/svg" xmlns:xlink="http://www.w3.org/1999/xlink" x="0px" y="0px"
	 viewBox="0 0 550 550" style="enable-background:new 0 0 550 550;" xml:space="preserve">
<style type="text/css">
	.st0{fill:#6C4D4D;}
</style>
<g>
	<path class="st0" d="M275.1,534.2c-58.4,0-116.9,0-175.3,0c-2.3,0-4.4-0.3-6.5-1.1c-2.6-1-3.5-2.2-3.6-4.9c0-0.9,0-1.8,0-2.7
		c0-81.8,0-163.6,0-245.4c0-1.2-0.1-2.5,0-3.7c0.1-1.1-0.3-1.6-1.4-1.5c-0.7,0.1-1.4,0.1-2.1,0c-3.4-0.4-6-2.9-5.9-6.3
		c0-2-1-4.2,1-6c0.2-0.2,0.1-0.7,0-1c-0.8-5.2,1.3-10.3,1.1-15.5c-0.1-2.5,0.6-5,1-7.5c0.3-2.3-0.9-4.9,1.1-7c0.1-0.1,0-0.3,0-0.5
		c0.4-5,0.6-10,1.1-15c0.2-2.3,0.6-4.7,1.1-7c0.4-2.3-1.1-4.9,1-7c0.2-0.2,0.1-0.7,0-1c-0.8-5.2,1.3-10.3,1.1-15.5
		c-0.1-2,0.8-3.9,1-5.9c0.2-2.1-0.2-4.3,0.1-6.4c0.2-1.8,1.4-3.3,2.6-4.7c1.3-1.5,2.9-0.9,4.4-0.9c55.2,0,110.5,0,165.7,0
		c1.1,0,2.1,0,3.2,0c2.9-0.1,3.5-0.7,3.5-3.8c0-9.6,0-19.1,0-28.7c0-3-0.7-3.7-3.7-3.6c-7.3,0.3-14.5-1.9-21.9-1.1
		c-4.9-1.8-10.1-0.2-14.9-1.2c-6.6-1.4-13.2-0.5-19.8-0.9c-7.5-0.4-11.4-5.4-12-11.7c-0.2-2.2-0.8-4.3-1-6.5c-0.2-2.1-0.2-4.3,0-6.4
		c0.5-5.9,1.6-11.6,2.9-17.4c2.6-11.2,7.1-21.5,12.6-31.4c3.6-6.4,7.6-12.7,12.6-18.2c2.4-2.7,4.5-5.8,7.3-8
		c5.1-4.1,9.8-8.8,16.2-11c1.9-0.6,3.7-1.8,5.5-1.9c1.5-0.1,3.1,1.3,4.9,0.9c2.3,2.2,4.7,4.3,6.8,6.7c2,2.3,3.4,5,5.3,7.3
		c2.4,3,5.2,5.6,7.4,8.6c3.9,5.4,8.8,10,12.5,15.5c1.7,2.6,3.9,4.8,6,7.1c4.3,5,8.6,9.8,12.7,14.9c5.3,6.5,10.6,13,16.1,19.4
		c3.5,4,6.6,8.3,10.2,12.2c3.2,3.5,6.2,7.3,9,11.2c1.1,1.5,1.4,3.7,1.8,5.6c0.4,2.2-0.5,4.6-1.7,6.1c-2.5,3.4-5.6,5.6-10.4,5.5
		c-7.3-0.2-14.5-2-21.9-1.2c-5.1-1.9-10.5-0.1-15.4-1.3c-4.9-1.1-9.7-0.4-14.5-0.9c-1.8-0.2-1.9,0.7-1.9,2.2c0.1,9.4,0,18.8,0,28.2
		c0,3,0.6,3.6,3.6,3.7c1.1,0,2.1,0,3.2,0c55.6,0,111.2,0,166.8,0c3.9,0,5.2,0.9,6.6,4.3c0.2,0.5,0.4,0.9,0.4,1.4
		c0.1,2.9-0.4,5.9,1.1,8.6c-0.8,5.6,1.5,11,1.1,16.6c-0.1,2.1,0.8,4.3,0.9,6.5c0.2,2.3-0.6,4.8,0.2,6.9c1.2,3.3,0.7,6.5,0.9,9.7
		c0.2,2.4,1.4,4.5,1.1,7c-0.2,2.3-0.7,4.8,1,7c0.2,0.2,0,0.7,0,1c0.3,5.5,0.6,11,1.1,16.6c0.2,2,0.8,3.9,1,5.9
		c0.2,2.1-0.7,4.6,0.2,6.3c1.3,2.4,0.6,4.2-0.4,6c-1.1,2.1-2.7,3.5-5.3,3.6c-2.9,0.1-2.9,0.2-2.9,3.2c0,0.7,0,1.4,0,2.1
		c0,81.4,0,162.9,0.1,244.3c0,5.9-1,9.6-9.7,9.6C392.3,534.2,333.7,534.2,275.1,534.2z M223.7,274.9c-38.9,0-77.9,0-116.8,0
		c-1.2,0-2.5,0.1-3.7,0c-1.5-0.2-1.8,0.6-1.7,1.9c0.1,0.9,0,1.8,0,2.7c0,43.7,0,87.4,0,131.2c0,5.7,0.5,5.7,5.9,5.7
		c77.5,0,155,0,232.6,0c1.1,0,2.1-0.1,3.2,0c1,0.1,1.7-0.1,1.6-1.4c-0.1-1.1,0-2.1,0-3.2c0-44.1,0-88.1,0-132.2c0-1.1,0-2.1,0-3.2
		c0.1-1.3-0.6-1.4-1.6-1.4c-1.2,0.1-2.5,0-3.7,0C300.8,274.9,262.2,274.9,223.7,274.9z M222.8,521.4c12,0,24.1,0,36.1,0
		c27.6,0,55.2,0,82.8,0c2.9,0,3,0,3-2.7c0-29.4,0-58.8,0-88.2c0-0.4,0-0.7,0-1.1c0.1-1-0.1-1.7-1.4-1.6c-1.2,0.1-2.5,0-3.7,0
		c-77.7,0-155.4,0-233.1,0c-0.9,0-1.8,0-2.7,0c-2.4,0-2.4,0-2.4,2.7c0,29.4,0,58.8,0,88.2c0,0.4,0,0.7,0,1.1c-0.1,1,0.1,1.7,1.4,1.6
		c1.4-0.1,2.8,0,4.2,0C145.7,521.4,184.2,521.4,222.8,521.4z M356.4,383.3c0,34.3,0,68.7,0,103c0,1.2,0.1,2.5,0,3.7
		c-0.1,1,0.1,1.7,1.4,1.6c1.1-0.1,2.1,0,3.2,0c27.8,0,55.6,0,83.4,0c4.5,0,4.5,0,4.5-4.8c0-69,0-138.1,0-207.1c0-1.1-0.1-2.1,0-3.2
		c0.1-1-0.1-1.7-1.4-1.6c-0.9,0.1-1.8,0-2.7,0c-28.1,0-56.3,0-84.4,0c-0.7,0-1.4,0-2.1,0c-1.2-0.1-2.1,0.1-1.9,1.7
		c0.1,1,0,2.1,0,3.2C356.4,314.3,356.4,348.8,356.4,383.3z M328.7,125.4c0-0.1,0-0.2,0.1-0.3c0.9,0,1.8,0,2.7,0c0.5,0,1-0.2,1.5-0.3
		c-0.2-0.4-0.5-0.8-0.7-1.1c-2-2.4-4.1-4.6-6-7.1c-4.5-5.8-9-11.6-13.9-17.1c-2.2-2.4-4.6-4.8-6.3-7.5c-2.3-3.6-5.5-6.5-8-9.9
		c-2.4-3.2-5.4-5.9-7.8-9c-4.8-6.3-9.9-12.2-15.1-18.2c-0.6-0.6-1-1.4-1.5-2c-2.7-3.3-5.5-6.6-8.3-9.9c-1-1.1-2.2-1.2-3.2-0.4
		c-3.2,2.8-7.3,4.4-10.1,7.8c-2.4,3-5.2,5.6-7.4,8.6c-2.7,3.7-5.3,7.6-7.5,11.8c-2.6,5.1-4.8,10.4-7,15.7c-0.6,1.5-0.6,3.3-1.1,4.8
		c-0.6,1.7-1.5,3.3-2,5c-0.5,1.6,0.8,3.6-1.1,4.9c0,4.8,0,9.6,0,14.3c0,0.4,0.5,0.9,0.8,1c1.1,0.4,2.2,1,3.3,1c4.8,0.1,9.6,0,14.4,1
		c4.2,0.8,8.5-0.3,12.9,1c2.6,0.8,5.6,0,8.4,0.2c2.7,0.2,5.4,0.7,8.1,1c3.6,0.4,7.1-0.4,10.8,0.9c2.4,0.8,5.3,0,7.9,0.2
		c2.7,0.2,5.4,0.7,8.1,1c3.9,0.4,7.8-0.4,11.8,0.9c2.5,0.8,5.6,0,8.4,0.2C323.4,124.4,326,125,328.7,125.4z M289.5,221.6
		c0-7.8,0-15.6,0-23.4c0-5.7,0-11.3,0-17c0-1.2,0-2-1.6-1.9c-8.8,0.1-17.7,0.1-26.5,0c-1,0-1.7,0.1-1.6,1.4c0.1,0.9,0,1.8,0,2.7
		c0,25.3,0,50.6,0,75.9c0,0.9,0,1.8,0,2.7c-0.1,1.2,0.6,1.4,1.6,1.4c8,0,15.9,0,23.9,0c4.2,0,4.3,0,4.3-4
		C289.5,246.7,289.5,234.1,289.5,221.6z M178,221.3c0,13.3,0,26.5,0,39.8c0,1.5,0.1,2.2,1.9,2.2c8.7-0.1,17.3-0.1,26,0
		c1.9,0,1.9-0.8,1.9-2.2c0-26.5-0.1-53.1,0.1-79.6c0-2.3-0.9-2.2-2.5-2.2c-8.3,0-16.6,0-24.9,0c-2.3,0-2.4,0-2.4,2.7
		C177.9,195.1,178,208.2,178,221.3z M412.7,221.2c0-13.3,0-26.5,0-39.8c0-1.5-0.2-2.2-1.9-2.2c-8.7,0.1-17.3,0.1-26,0
		c-1.9,0-1.9,0.9-1.9,2.2c0,26,0,52,0,78c0,3.1,0.6,3.7,3.5,3.7c8,0,15.9,0,23.9,0.1c1.8,0,2.4-0.3,2.4-2.3
		C412.7,247.8,412.7,234.5,412.7,221.2z M424.4,221c0,4.8,0,9.5,0,14.3c0,8.7,0,17.3,0,26c0,1.6,0.5,2,2.1,2
		c9.7-0.1,19.4-0.1,29.2,0c1.4,0,1.6-0.5,1.8-1.8c0.3-2.5-0.9-4.6-1.1-7c-0.4-5.7-0.7-11.4-1.1-17.1c0-0.4,0.1-0.8,0-1
		c-1.9-2.1-0.7-4.7-1-7c-0.3-2.5-0.7-5-1-7.5c-0.3-2.9,0.8-5.9-1.1-8.6c0.7-5.1-1.2-9.9-1-14.9c0.2-5.2-1.9-10.2-1.1-15.5
		c0-0.2,0-0.4,0-0.5c-0.4-1.9-1.7-3.1-3.7-3.1c-6.4,0-12.7,0-19.1,0c-2.7,0-2.7,0-2.7,2.9C424.4,195.2,424.4,208.1,424.4,221z
		 M166.3,221.3c0-13.3,0-26.5,0-39.8c0-1.4-0.1-2.2-1.9-2.2c-8.3,0.1-16.6,0.1-24.9,0c-1.9,0-1.9,0.8-1.9,2.2
		c0,26.5,0.1,53.1-0.1,79.6c0,2.3,0.9,2.2,2.5,2.2c8,0,15.9,0,23.9,0c2.3,0,2.4,0,2.4-2.7C166.3,247.5,166.3,234.4,166.3,221.3z
		 M248.1,221.6c0-7.8,0-15.6,0-23.4c0-5.7,0-11.3,0-17c0-1.1,0-2-1.6-1.9c-8.5,0.1-17,0.1-25.5,0c-1,0-1.7,0.1-1.6,1.4
		c0.1,0.9,0,1.8,0,2.7c0,25.3,0,50.6,0,75.9c0,0.9,0,1.8,0,2.7c-0.1,1.2,0.6,1.4,1.6,1.4c7.6,0,15.2,0,22.8,0c4.2,0,4.3,0,4.3-4
		C248.1,246.7,248.1,234.1,248.1,221.6z M301.2,220.7c0,13.4,0,26.9,0,40.3c0,1.4,0,2.2,1.9,2.2c8.3-0.1,16.6-0.1,24.9,0
		c1.8,0,1.9-0.7,1.9-2.2c0-26.5,0-53.1,0-79.6c0-1.4,0-2.2-1.9-2.2c-8.3,0.1-16.6,0.1-24.9,0c-1.8,0-1.9,0.7-1.9,2.2
		C301.2,194.6,301.2,207.7,301.2,220.7z M342.6,220.7c0,13.1,0,26.2,0,39.3c0,3.2,0,3.2,2.9,3.2c7.8,0,15.6,0,23.4,0
		c2.4,0,2.4,0,2.4-2.7c0-22.5,0-44.9,0-67.4c0-3.9,0-7.8,0-11.7c0-1.4,0-2.3-1.9-2.2c-8.3,0.1-16.6,0.1-24.9,0
		c-1.8,0-1.9,0.7-1.9,2.2C342.6,194.6,342.6,207.6,342.6,220.7z M125.9,221.2c0-13.3,0-26.5,0-39.8c0-1.5-0.2-2.2-1.9-2.2
		c-5.7,0.1-11.3,0-17,0.1c-1.7,0-3.7-0.4-5.2,0.3c-1.3,0.6,0.3,2.9-1.1,4.2c-0.5,0.4-0.4,1.6-0.3,2.5c0.5,5.9-1.8,11.7-1.1,17.6
		c0,0.3,0.2,0.8,0,1c-1.7,2.1-0.8,4.7-1.1,7c-0.3,2.5-0.8,5-1,7.5c-0.4,5.5-0.7,11-1.1,16.5c0,0.2,0.1,0.4,0,0.5
		c-1.5,2.2-1.2,4.6-1,7c0.2,2.5-0.9,4.7-1.1,7c-0.3,3.4,0.1,6.8-1,10.2c-0.8,2.5,0,2.6,1.9,2.5c9.5-0.1,19.1-0.1,28.6,0
		c1.9,0,2.4-0.4,2.3-2.3C125.8,247.7,125.9,234.5,125.9,221.2z M402.7,521.4c14.7,0,29.4,0,44.1,0c1.5,0,2.2-0.2,2.2-1.9
		c-0.1-4.1,0-8.1,0-12.2c0-3.9,0-3.9-3.8-3.9c-28.3,0-56.6,0-84.9,0c-0.5,0-1.1,0.1-1.6,0c-1.5-0.2-2.2,0.1-2.2,1.9
		c0.1,4.4,0,8.8,0,13.3c0,2.9,0,2.9,2.7,2.9C373.7,521.4,388.2,521.4,402.7,521.4z M211.8,116.6c1.2,0,2.3,0.2,2.3-1.8
		c0.1-5.9-0.3-11.7,0.8-17.7c0.8-4,2-7.7,3-11.5c1.5-5.6,4.2-10.6,6.7-15.8c3.1-6.6,6.7-12.9,11-18.8c2.3-3.2,5.2-6,7.8-9
		c0.6-0.7,1.1-1.5,1.9-1.8c3.9-1.8,6-6,10.3-7.2c0.5-0.1,1.2-0.7,0.3-1.5c-0.7-0.6-1.3-1.2-1.9-1.9c-1.1-1.3-1.8-1-3.4-0.4
		c-3.1,1.2-4.9,3.7-7.4,5.4c-6.1,3.9-10.1,9.7-14.4,15.3c-2.2,2.9-4,6.1-5.9,9.2c-4.2,6.8-7.4,13.9-10.1,21.3
		c-1.5,4.2-3.1,8.4-3.2,13c-1.5,1.4-0.9,3.2-1.1,4.9c-0.2,1.8-1,3.6-1,5.4c0.1,3.6,0.6,7.2,1,10.7
		C209,116.1,210.2,116.8,211.8,116.6z"/>
	<path class="st0" d="M383,392.4c0,5.7,0,11.3,0,17c0,0.9,0.2,1.9-0.1,2.6c-0.4,1.1-1.6,3.2-1.9,3.1c-1.8-0.6-2.8,2.2-5.2,0.4
		c-2.6-2-4.6-3.8-4.6-7.2c0-10.6-0.1-21.2,0-31.8c0-1.8,0.5-3.7,1.2-5.3c0.3-0.7,1.7-1.6,2.4-1.5c1.5,0.3,2-2,4.2-0.6
		c2.6,1.7,4.1,3.2,3.9,6.4C382.8,381,383,386.7,383,392.4z"/>
	<path class="st0" d="M262.1,76.3c-1.5-0.6-3.2-0.9-4.6-1.7c-1.8-1.1-2.8-3-3.1-5c-0.6-3.4,3.2-7.7,6.9-8.1c2-0.2,3.4,1.1,5.1,1.8
		c2.4,1.1,1.2,3.9,2.9,5.2c-0.7,1.7-1.2,3.4-2,5C266.3,75.6,263.6,74.8,262.1,76.3z"/>
	<path class="st0" d="M300.9,117.7c-1.7,0.5-2.8-0.8-4.3-1.7c-2.1-1.3-1.2-3.9-2.8-5.2c1.7-1.3,0.8-3.9,2.9-5.2
		c1.5-1,2.7-1.8,4.6-1.7c4.7,0.2,7.4,2.6,7.3,7C308.6,115.2,305.9,117.7,300.9,117.7z"/>
	<path class="st0" d="M267.3,93.3c-0.6-1.9,0.3-3.2,1.7-4.5c1.5-1.4,3.1-3,5.1-2.8c1.7,0.1,3.7,0.8,5,1.8c1.5,1.3,2,3.3,2,5.4
		c0,2.2-0.5,4.2-2,5.5c-1.2,1.1-3.2,1.7-4.9,1.9c-2.1,0.2-3.6-1.4-5.1-2.8C267.6,96.6,266.7,95.3,267.3,93.3z"/>
	<path class="st0" d="M238.5,103.6c-0.1-2.1-0.1-3.8,1.7-5.3c1.4-1.2,2.6-1.9,4.6-1.9c4.8,0.1,7.5,2.5,7.5,6.9s-2.6,6.9-7.4,7
		c-1.9,0.1-3.2-0.6-4.6-1.8C238.6,107.1,238.3,105.4,238.5,103.6z"/>
</g>
</svg>
